<svg id="visual" viewBox="0 0 960 540" width="960" height="540" xmlns="http://www.w3.org/2000/svg" xmlns:xlink="http://www.w3.org/1999/xlink" version="1.1"><rect x="0" y="0" width="960" height="540" fill="#FFFFFF"></rect><defs><linearGradient id="grad1_0" x1="43.8%" y1="100%" x2="100%" y2="0%"><stop offset="14.444444444444446%" stop-color="#ffffff" stop-opacity="1"></stop><stop offset="85.55555555555554%" stop-color="#ffffff" stop-opacity="1"></stop></linearGradient></defs><defs><linearGradient id="grad2_0" x1="0%" y1="100%" x2="56.3%" y2="0%"><stop offset="14.444444444444446%" stop-color="#ffffff" stop-opacity="1"></stop><stop offset="85.55555555555554%" stop-color="#ffffff" stop-opacity="1"></stop></linearGradient></defs><g transform="translate(960, 540)"><path d="M-243 0C-244.9 -17.1 -246.8 -34.3 -237.4 -47.2C-227.9 -60.2 -206.9 -69 -199.6 -82.7C-192.2 -96.4 -198.3 -115 -196.2 -131.1C-194.1 -147.3 -183.7 -161 -171.8 -171.8C-159.9 -182.7 -146.5 -190.7 -132.8 -198.7C-119.1 -206.8 -105.2 -214.9 -90.3 -218C-75.4 -221.2 -59.5 -219.3 -44.3 -222.6C-29.1 -226 -14.5 -234.5 0 -243L0 0Z" fill="#3cc0fa"></path></g><g transform="translate(0, 0)"><path d="M243 0C222.8 11.8 202.5 23.7 203 40.4C203.5 57.1 224.7 78.7 222.7 92.2C220.6 105.7 195.3 111.1 182.9 122.2C170.5 133.4 170.9 150.4 165.5 165.5C160 180.5 148.7 193.7 135 202C121.4 210.4 105.4 213.8 90.3 218C75.2 222.2 61 227.2 46 231.5C31.1 235.7 15.6 239.4 0 243L0 0Z" fill="#3cc0fa"></path></g></svg>