<svg id="visual" viewBox="0 0 960 540" width="960" height="540" xmlns="http://www.w3.org/2000/svg" xmlns:xlink="http://www.w3.org/1999/xlink" version="1.1"><rect x="0" y="0" width="960" height="540" fill="#001220"></rect><path d="M0 341L22.8 342.2C45.7 343.3 91.3 345.7 137 349.8C182.7 354 228.3 360 274 360.5C319.7 361 365.3 356 411.2 360.7C457 365.3 503 379.7 548.8 387C594.7 394.3 640.3 394.7 686 385.8C731.7 377 777.3 359 823 348.8C868.7 338.7 914.3 336.3 937.2 335.2L960 334L960 541L937.2 541C914.3 541 868.7 541 823 541C777.3 541 731.7 541 686 541C640.3 541 594.7 541 548.8 541C503 541 457 541 411.2 541C365.3 541 319.7 541 274 541C228.3 541 182.7 541 137 541C91.3 541 45.7 541 22.8 541L0 541Z" fill="#69e0fa"></path><path d="M0 400L22.8 399.2C45.7 398.3 91.3 396.7 137 392.2C182.7 387.7 228.3 380.3 274 382.7C319.7 385 365.3 397 411.2 401.7C457 406.3 503 403.7 548.8 401.7C594.7 399.7 640.3 398.3 686 399.3C731.7 400.3 777.3 403.7 823 396.8C868.7 390 914.3 373 937.2 364.5L960 356L960 541L937.2 541C914.3 541 868.7 541 823 541C777.3 541 731.7 541 686 541C640.3 541 594.7 541 548.8 541C503 541 457 541 411.2 541C365.3 541 319.7 541 274 541C228.3 541 182.7 541 137 541C91.3 541 45.7 541 22.8 541L0 541Z" fill="#57beff"></path><path d="M0 424L22.8 421.2C45.7 418.3 91.3 412.7 137 416.7C182.7 420.7 228.3 434.3 274 432.7C319.7 431 365.3 414 411.2 405.8C457 397.7 503 398.3 548.8 402.2C594.7 406 640.3 413 686 412.3C731.7 411.7 777.3 403.3 823 409.8C868.7 416.3 914.3 437.7 937.2 448.3L960 459L960 541L937.2 541C914.3 541 868.7 541 823 541C777.3 541 731.7 541 686 541C640.3 541 594.7 541 548.8 541C503 541 457 541 411.2 541C365.3 541 319.7 541 274 541C228.3 541 182.7 541 137 541C91.3 541 45.7 541 22.8 541L0 541Z" fill="#8994ee"></path><path d="M0 461L22.8 457.5C45.7 454 91.3 447 137 446.3C182.7 445.7 228.3 451.3 274 453.5C319.7 455.7 365.3 454.3 411.2 454.2C457 454 503 455 548.8 456.7C594.7 458.3 640.3 460.7 686 460.3C731.7 460 777.3 457 823 455.2C868.7 453.3 914.3 452.7 937.2 452.3L960 452L960 541L937.2 541C914.3 541 868.7 541 823 541C777.3 541 731.7 541 686 541C640.3 541 594.7 541 548.8 541C503 541 457 541 411.2 541C365.3 541 319.7 541 274 541C228.3 541 182.7 541 137 541C91.3 541 45.7 541 22.8 541L0 541Z" fill="#b960b9"></path><path d="M0 496L22.8 494.7C45.7 493.3 91.3 490.7 137 489.2C182.7 487.7 228.3 487.3 274 485.5C319.7 483.7 365.3 480.3 411.2 483.7C457 487 503 497 548.8 500.8C594.7 504.7 640.3 502.3 686 497.2C731.7 492 777.3 484 823 479.7C868.7 475.3 914.3 474.7 937.2 474.3L960 474L960 541L937.2 541C914.3 541 868.7 541 823 541C777.3 541 731.7 541 686 541C640.3 541 594.7 541 548.8 541C503 541 457 541 411.2 541C365.3 541 319.7 541 274 541C228.3 541 182.7 541 137 541C91.3 541 45.7 541 22.8 541L0 541Z" fill="#c62368"></path></svg>