<svg xmlns="http://www.w3.org/2000/svg" width="847" height="574" viewBox="0 0 847 574.4"><path d="M556.7,261.1c17-9,37-17.9,56.8-26,1.4,2,12.2,17,34.5,20.4a202.4,202.4,0,0,1-25.4,17.2A140.1,140.1,0,0,1,602,282C582.3,282.8,561.1,265.1,556.7,261.1Z" fill="#bfe1fb"/><path d="M615.2,234.4c37.8-15.3,74.4-27.5,87.3-31.6-4.7,6.5-11.8,12.7-17.3,18.4s-12.9,13.1-19.6,19.3c-5.1,4.7-10.3,9.2-15.7,13.6C628.4,251.3,617.5,237.6,615.2,234.4Z" fill="#bfe1fb"/><path d="M638.8,223.5c-20.6,7.9-43.2,17-63.5,26.6,3.1-6.2,17.3-32.7,34.4-45.6a140,140,0,0,1,53.7-10.4c-12.9,11.6-24.6,29.2-24.7,29.4Z" fill="#bfe1fb"/><path d="M665.5,194.2c2.5.1,5,.2,7.5.5,9.6.9,21.4,2,29.6,6.4-9.7,3.1-33.7,11.1-61.6,21.6C644.2,218,654.6,203.6,665.5,194.2Z" fill="#bfe1fb"/><path d="M573.3,251h.1c-14.7,7-28.1,14.3-38.7,21.4.5-2.5,2.2-5.9,5.3-10.7a148.4,148.4,0,0,1,65.1-55.3C587.2,222.4,573.4,250.7,573.3,251Z" fill="#bfe1fb"/><path d="M597.1,283.5a92.7,92.7,0,0,1-28.6,4.2,60.3,60.3,0,0,1-24.7-5.5c-5.8-2.8-8.9-4.7-9.2-7.9,6-4.1,12.9-8.2,20.4-12.3C558,264.7,577.3,281.8,597.1,283.5Z" fill="#bfe1fb"/><path d="M573.4,251h-.1c.1-.3,13.9-28.6,31.8-44.6l4.6-1.9c-17.1,12.9-31.3,39.4-34.4,45.6,20.3-9.6,42.9-18.7,63.5-26.6h-.1c.1-.2,11.8-17.8,24.7-29.4h2.1c-10.9,9.4-21.3,23.8-24.5,28.5,27.9-10.5,51.9-18.5,61.6-21.6l.8.4-.9,1.3c-12.9,4.1-49.5,16.3-87.3,31.6,2.3,3.2,13.2,16.9,34.7,19.7l-1.9,1.4c-22.3-3.4-33.1-18.4-34.5-20.4-19.8,8.1-39.8,17-56.8,26,4.4,4,25.6,21.7,45.3,20.9l-4.9,1.5C577.3,281.8,558,264.7,555,262c-7.5,4.1-14.4,8.2-20.4,12.3a6.2,6.2,0,0,1,.1-1.9C545.3,265.3,558.7,258,573.4,251Z" fill="#e6e6e3"/><path d="M534.6,236.3c19.7-19.7,44.3-40.6,69.2-60.4,3.8,2,32.2,16.1,69.8,9.9a231.2,231.2,0,0,1-26.8,34.1,176.1,176.1,0,0,1-25.3,21.8C591.3,252.1,544.6,239.3,534.6,236.3Z" fill="#fe4a5a"/><path d="M605.9,174.2c47.6-37.6,95.9-70.6,112.8-82.1-2.3,10.6-8.8,22-13,31.9-5,11.5-10.2,22.9-16,34.1-4.4,8.5-9.2,16.8-14.3,24.9C639.6,189.7,611.9,177.2,605.9,174.2Z" fill="#fe4a5a"/><path d="M634.6,149c-26.3,19.9-54.7,42.4-79.3,64.4.3-9.5,2.2-50.3,19.1-75.1a228.6,228.6,0,0,1,76.3-38.8c-11.2,21.1-16.2,49.2-16.2,49.5Z" fill="#fe4a5a"/><path d="M654.1,98.6c4.1-1.1,8.1-2.1,12.2-3,15.8-3.3,35.1-7.5,51.4-5.7-12.8,8.6-44.5,30.3-80.3,57C639,139.4,644.2,115.9,654.1,98.6Z" fill="#fe4a5a"/><path d="M552.8,215.4h.3c-17.7,16-33.2,31.7-44.4,46-1.2-3.6-1-8.7.2-16.4,6.4-41.2,29-76,59.7-102C552.8,172,552.8,215,552.8,215.4Z" fill="#fe4a5a"/><path d="M615.1,246a159.5,159.5,0,0,1-41.6,18.9,127.6,127.6,0,0,1-43,4.8c-11.3-.9-17.6-1.9-20.6-5.9a292.4,292.4,0,0,1,22.7-25.5C539.4,240.4,582.7,253.3,615.1,246Z" fill="#fe4a5a"/><path d="M553.1,215.4h-.3c0-.4,0-43.4,15.8-72.4l5.8-4.7c-16.9,24.8-18.8,65.6-19.1,75.1,24.6-22,53-44.5,79.3-64.4h-.1c0-.3,5-28.4,16.2-49.5l3.4-.9c-9.9,17.3-15.1,40.8-16.7,48.3,35.8-26.7,67.5-48.4,80.3-57l1.4.2a17.7,17.7,0,0,1-.4,2c-16.9,11.5-65.2,44.5-112.8,82.1,6,3,33.7,15.5,69.5,8.8l-1.8,2.8c-37.6,6.2-66-7.9-69.8-9.9-24.9,19.8-49.5,40.7-69.2,60.4,10,3,56.7,15.8,86.9,5.4l-6.4,4.3c-32.4,7.3-75.7-5.6-82.5-7.7a292.4,292.4,0,0,0-22.7,25.5,9,9,0,0,1-1.2-2.4C519.9,247.1,535.4,231.4,553.1,215.4Z" fill="#e6e6e3"/><path d="M48.9,128.4c-.5-7.6.2-16.4,1.7-26.8l32,40.5A235.7,235.7,0,0,1,48.9,128.4Z" fill="#00f4d9"/><path d="M99.6,160.7c1.3-13.9-3.3-35.3-7-49.5,9.8,6.8,16.3,17.5,21.9,34.9,11.4,34.7,23.8,16.4,25,11.2s-2.3-26.2,12.1-27.1h2.2c13,33.2,12.8,100.6,12.6,115.2Z" fill="#00f4d9"/><path d="M151,228.8c-6.4,1.1-38.1,4.1-93-24.4,4.6-12.5,23.6-4.9,28.8-5s25.9-8.1-5.4-26.7C60,160,50.9,148.4,49.1,130.7a247.6,247.6,0,0,0,35.6,14.1Z" fill="#00f4d9"/><path d="M97.8,158.5,52.1,100.6c16.8,1.2,28.9,3.6,38.1,9.1C93.8,123.2,98.6,144.3,97.8,158.5Z" fill="#00f4d9"/><path d="M155.9,130.7c13,3.9,26.4,28.3,36.2,64.1a242.3,242.3,0,0,1,6.6,33.1c1.6,10.8,2.7,21.7,3.5,32.5.6,8,1.1,16.1,1.3,24.1.1,1.7-1.2,3.6-2.6,4.7l-32.6-41.3C168.5,238.9,169.7,167,155.9,130.7Z" fill="#00f4d9"/><path d="M57.5,206.3c58.1,30,90.6,25.2,94.9,24.4l46.9,59.4h-.2a7.3,7.3,0,0,1-3.5-.5c-2.6-.9-5.2-1.6-7.8-2.3l-13.1-3.8c-10.4-3.2-20.8-6.6-31.1-10.5a270.7,270.7,0,0,1-31.3-13.8l-.5-.2C76.3,240.1,54.7,220,57.5,206.3Z" fill="#00f4d9"/><path d="M57.5,206.3c.1-.4.1-.7.2-1l.3-.9c54.9,28.5,86.6,25.5,93,24.4l-66.3-84a247.6,247.6,0,0,1-35.6-14.1c-.1-.8-.1-1.5-.2-2.3a235.7,235.7,0,0,0,33.7,13.7l-32-40.5a2,2,0,0,0,.1-.7c.1-.3.2-.4.5-.4h.9l45.7,57.9c.8-14.2-4-35.3-7.6-48.8l2.4,1.5c3.7,14.2,8.3,35.6,7,49.5l66.8,84.8c.2-14.6.4-82-12.6-115.2l2.1.4c13.8,36.3,12.6,108.2,12.4,117.2l32.6,41.3a6.5,6.5,0,0,1-1.6.9l-46.9-59.4C148.1,231.5,115.6,236.3,57.5,206.3Z" fill="#f7f6f4"/><path d="M80.1,233.3a72.2,72.2,0,0,1-2-16.2l23.7,20.4A154.2,154.2,0,0,1,80.1,233.3Z" fill="#0091ff"/><path d="M114.1,246.7c-.9-8.5-6.1-20.7-9.9-28.7,6.6,2.9,11.7,8.5,17.1,18.2,10.8,19.4,16.1,7.1,16.2,3.8s-4.4-15.3,4.1-17.5l1.3-.2c11.6,18.3,19.2,58.5,20.8,67.2Z" fill="#0091ff"/><path d="M152.6,281.4c-3.7,1.3-22.2,6.8-58.3-3.9,1.3-8,13.5-5.6,16.6-6.3s14.6-7.8-6.3-15.3c-14.2-5.1-20.9-10.9-24.1-21.3a142,142,0,0,0,22.9,4.3Z" fill="#0091ff"/><path d="M112.7,245.5,78.9,216.3c10.1-1.2,17.6-1.2,23.7,1.1C106.3,225,111.6,237,112.7,245.5Z" fill="#0091ff"/><path d="M144.2,222.3c8.2.8,19,13.8,29,34a154.2,154.2,0,0,1,7.7,19c2.2,6.3,4.1,12.6,5.9,19,1.2,4.7,2.5,9.5,3.5,14.2a3.7,3.7,0,0,1-1,3.1l-24.2-20.9C164.2,285.4,156.6,242.3,144.2,222.3Z" fill="#0091ff"/><path d="M94.2,278.7c38.1,11.2,57,4.6,59.5,3.6l34.8,30h-.1a4.1,4.1,0,0,1-2.2.1l-4.9-.5-8.2-.7q-9.9-1.1-19.8-2.7A180.1,180.1,0,0,1,133,304h-.3C109.3,296.7,94.2,287.2,94.2,278.7Z" fill="#0091ff"/><path d="M94.2,278.7a1.3,1.3,0,0,1,.1-.6v-.6c36.1,10.7,54.6,5.2,58.3,3.9l-49.2-42.5a142,142,0,0,1-22.9-4.3,6.5,6.5,0,0,0-.4-1.3,154.2,154.2,0,0,0,21.7,4.2L78.1,217.1v-.5c0-.1,0-.2.2-.3h.6l33.8,29.2c-1.1-8.5-6.4-20.5-10.1-28.1l1.6.6c3.8,8,9,20.2,9.9,28.7l49.6,42.8c-1.6-8.7-9.2-48.9-20.8-67.2h1.3c12.4,20,20,63.1,20.9,68.4l24.2,20.9c-.3.3-.5.6-.8.7l-34.8-30C151.2,283.3,132.3,289.9,94.2,278.7Z" fill="#f7f6f4"/><rect x="330.7" y="396.9" width="77.5" height="85.03" fill="#999"/><rect x="330.7" y="396.3" width="77.5" height="31.94" fill="#666" opacity="0.46"/><rect x="167.8" y="121" width="403.4" height="296.07" rx="15.9" fill="#4d4d4d"/><rect x="182" y="140.5" width="375" height="257.21" fill="#b0bbd1"/><path d="M479.1,487.1H259.8l1.6-2.3c6.1-8.9,22.9-14.9,41.7-14.9H435.8c18.8,0,35.6,6,41.7,14.9Z" fill="#4d4d4d"/><polygon points="550.4 546.6 187.2 546.6 217.9 482.4 516.9 482.4 550.4 546.6" fill="#f2f2f2"/><polygon points="530.1 536.6 206.5 536.6 229.1 487.6 507.5 487.6 530.1 536.6" fill="#e6e6e6"/><polygon points="443.7 531.8 291.4 531.8 293.6 523.7 441.5 523.7 443.7 531.8" fill="#f2f2f2"/><polygon points="241.5 531.8 218.6 531.8 222.3 523.7 245.1 523.7 241.5 531.8" fill="#f2f2f2"/><polygon points="276.4 520.8 223.6 520.8 227.4 512.6 279 512.6 276.4 520.8" fill="#f2f2f2"/><polygon points="266.6 509.2 228.8 509.2 232.8 501.1 269 501.1 266.6 509.2" fill="#f2f2f2"/><polygon points="509 509.2 470.4 509.2 467.9 501.1 505.3 501.1 509 509.2" fill="#f2f2f2"/><polygon points="301.4 509.2 279.1 509.2 281.3 501.1 303.1 501.1 301.4 509.2" fill="#f2f2f2"/><polygon points="256.6 497.7 234.3 497.7 237.9 489.6 259.9 489.6 256.6 497.7" fill="#f2f2f2"/><polygon points="288.8 497.7 266.5 497.7 269.6 489.6 291.2 489.6 288.8 497.7" fill="#f2f2f2"/><polygon points="318.2 497.7 295.9 497.7 298.1 489.6 319.7 489.6 318.2 497.7" fill="#f2f2f2"/><polygon points="348.3 497.7 326 497.7 327.2 489.6 348.8 489.6 348.3 497.7" fill="#f2f2f2"/><polygon points="378 497.7 355.7 497.7 356 489.6 377.6 489.6 378 497.7" fill="#f2f2f2"/><polygon points="408 497.7 385.7 497.7 385.1 489.6 406.7 489.6 408 497.7" fill="#f2f2f2"/><polygon points="437.4 497.7 415.1 497.7 413.7 489.6 435.3 489.6 437.4 497.7" fill="#f2f2f2"/><polygon points="467.5 497.7 445.2 497.7 442.8 489.6 464.4 489.6 467.5 497.7" fill="#f2f2f2"/><polygon points="503.8 497.8 481.6 497.7 478.2 489.6 499.9 489.6 503.8 497.8" fill="#f2f2f2"/><polygon points="332 509.2 309.7 509.2 311.1 501.1 332.9 501.1 332 509.2" fill="#f2f2f2"/><polygon points="363.1 509.2 340.8 509.2 341.5 501.1 363.2 501.1 363.1 509.2" fill="#f2f2f2"/><polygon points="393.7 509.2 371.4 509.2 371.3 501.1 393 501.1 393.7 509.2" fill="#f2f2f2"/><polygon points="424.6 509.2 402.3 509.2 401.4 501.1 423.1 501.1 424.6 509.2" fill="#f2f2f2"/><polygon points="455.2 509.2 432.9 509.2 431.2 501.1 452.9 501.1 455.2 509.2" fill="#f2f2f2"/><polygon points="317.1 520.8 292.2 520.8 294.5 512.6 318.6 512.6 317.1 520.8" fill="#f2f2f2"/><polygon points="348 520.8 324.5 520.8 325.8 512.6 348.6 512.6 348 520.8" fill="#f2f2f2"/><polygon points="514.4 520.8 461.5 520.8 459 512.6 510.7 512.6 514.4 520.8" fill="#f2f2f2"/><polygon points="411.4 520.8 386.6 520.8 386 512.6 410.2 512.6 411.4 520.8" fill="#f2f2f2"/><polygon points="380 520.8 355.1 520.8 355.5 512.6 379.6 512.6 380 520.8" fill="#f2f2f2"/><polygon points="442.3 520.8 418.9 520.8 417.4 512.6 440.1 512.6 442.3 520.8" fill="#f2f2f2"/><polygon points="280.8 531.8 257.9 531.8 261.2 523.7 283.4 523.7 280.8 531.8" fill="#f2f2f2"/><polygon points="478 531.8 455.2 531.8 452.6 523.7 474.8 523.7 478 531.8" fill="#f2f2f2"/><polygon points="519.5 531.8 497 531.8 493.4 523.7 515.6 523.7 519.5 531.8" fill="#f2f2f2"/><path d="M187.2,546.4H550.4a0,0,0,0,1,0,0v4a4,4,0,0,1-4,4H191.5a4.3,4.3,0,0,1-4.3-4.3v-3.7A0,0,0,0,1,187.2,546.4Z" fill="#4d4d4d"/><rect x="244.2" y="32.5" width="244.5" height="365.57" fill="#f2f2f2"/><rect x="249.7" y="23.6" width="84.3" height="56.27" transform="translate(206.1 335.5) rotate(-83.2)" fill="#0d0d0d" opacity="0.25"/><rect x="242.7" y="4.1" width="74.2" height="84.3" transform="translate(7.4 -32.7) rotate(6.8)" fill="#dbdbdb"/><path d="M248.9,46.2l.4-3.8c.1-.2.1-.4.2-.5s.6-2.8,1-4.1a30.7,30.7,0,0,1,27-20.7h3.4l3.8.5h.5c1.3.4,2.7.6,4.1,1.1a30.4,30.4,0,0,1,20.6,26.9c.1,1.1.1,2.3.1,3.4l-.4,3.8a4.3,4.3,0,0,1-.1.5c-.5,1.7-.9,3.5-1.5,5.1a30.5,30.5,0,0,1-26.6,19.7H278l-3.8-.5h-.4l-4.2-1.1A30.5,30.5,0,0,1,249,49.6C248.9,48.4,248.9,47.3,248.9,46.2Zm28.3,22.1a21.5,21.5,0,0,0,14.5-3.8,1,1,0,0,0,.4-.8,14.1,14.1,0,0,0-6.5-11.8c-.3-.3-.6-.3-1.1-.2a12.4,12.4,0,0,1-10.9-1.2,1.2,1.2,0,0,0-1-.1,14.1,14.1,0,0,0-8.9,10.2.8.8,0,0,0,.2.9A21.2,21.2,0,0,0,277.2,68.3Zm2-17.9a10,10,0,1,0-8.9-11A10,10,0,0,0,279.2,50.4Z" fill="#0091ff"/><path d="M277.2,68.3a21.2,21.2,0,0,1-13.3-6.8.8.8,0,0,1-.2-.9,14.1,14.1,0,0,1,8.9-10.2,1.2,1.2,0,0,1,1,.1,12.4,12.4,0,0,0,10.9,1.2c.5-.1.8-.1,1.1.2a14.1,14.1,0,0,1,6.5,11.8,1,1,0,0,1-.4.8A21.5,21.5,0,0,1,277.2,68.3Z" fill="#fff"/><path d="M279.2,50.4a10,10,0,1,1,11-8.9A10,10,0,0,1,279.2,50.4Z" fill="#fff"/><polygon points="46.5 550.2 32.4 562.8 50.5 568.2 46.5 550.2" fill="#fdca8d"/><polygon points="36.4 559.2 32.4 562.8 37.5 564.3 36.4 559.2" fill="#023444"/><rect x="152.6" y="523.4" width="30" height="18.36" rx="3.8" transform="translate(-111.6 49.1) rotate(-12.5)" fill="#fe4a5a"/><rect x="45.3" y="538.3" width="110" height="6.12" transform="translate(-115 34.6) rotate(-12.5)" fill="#6ecbf9"/><rect x="46.6" y="544.3" width="110" height="6.12" transform="translate(-116.3 35.1) rotate(-12.5)" fill="#43b7ff"/><rect x="48" y="550.2" width="110" height="6.12" transform="translate(-117.5 35.5) rotate(-12.5)" fill="#0091ff"/><rect x="147.9" y="533.1" width="18.4" height="3.7" transform="translate(645.3 265.5) rotate(77.5)" fill="#f2f2f2"/><g opacity="0.5"><rect x="270" y="206.5" width="195.3" height="7.4" fill="#8e9aa3"/><rect x="270" y="159.5" width="195.3" height="7.4" fill="#8e9aa3"/><rect x="270" y="174.6" width="195.3" height="7.4" fill="#8e9aa3"/><rect x="270" y="221.3" width="166.7" height="7.4" fill="#8e9aa3"/><rect x="270" y="255.6" width="195.3" height="7.4" fill="#8e9aa3"/><rect x="270" y="270.4" width="166.7" height="7.4" fill="#8e9aa3"/><rect x="270" y="309.4" width="195.3" height="7.4" fill="#8e9aa3"/><rect x="270" y="324.2" width="166.7" height="7.4" fill="#8e9aa3"/></g><path d="M365.6,102.2h-4L356,94.6h-2.6v7.6h-3.5V79.8h6.7a7.1,7.1,0,0,1,5.5,2.2,8.4,8.4,0,0,1,0,10.4,5.3,5.3,0,0,1-2.6,1.7Zm-9-10.7a4.5,4.5,0,0,0,3.2-1.2,5.3,5.3,0,0,0,0-6.2,4.4,4.4,0,0,0-3.2-1.1h-3.2v8.5Z" fill="#8e9aa3"/><path d="M371.8,88.9H380v3.2h-8.2V99h9.9v3.2H368.3V79.8h13.4v3.1h-9.9Z" fill="#8e9aa3"/><path d="M397.7,97.7a6.5,6.5,0,0,1-5.1,4.3l-1.3.2a8.6,8.6,0,0,1-2.7-.5,9.2,9.2,0,0,1-3.7-2.9l2.8-2.2a4.7,4.7,0,0,0,2.2,1.8,3.8,3.8,0,0,0,2.1.2,3,3,0,0,0,2.3-1.9,2.6,2.6,0,0,0-1-2.5l-2.8-2.7-2.7-2.6a6.9,6.9,0,0,1-1.7-2.6,4.8,4.8,0,0,1-.1-2.9,5.9,5.9,0,0,1,1.7-2.5,5.1,5.1,0,0,1,2.7-1.2,5.4,5.4,0,0,1,3.3.2,7.1,7.1,0,0,1,3,2.3L394,84.4a3.2,3.2,0,0,0-3-1.3,2,2,0,0,0-1.6,1.3,2.1,2.1,0,0,0,.8,2L394,90l1.7,1.6a7.3,7.3,0,0,1,1.9,2.9A5.8,5.8,0,0,1,397.7,97.7Z" fill="#8e9aa3"/><path d="M403.8,100.4a6.4,6.4,0,0,1-2-2.4,8.1,8.1,0,0,1-.8-3.4V79.8h3.5V94.6a3.6,3.6,0,0,0,1.4,3,5.5,5.5,0,0,0,3.4,1.1,5.3,5.3,0,0,0,3.4-1.1,3.6,3.6,0,0,0,1.4-3V79.8h3.5V94.6a9.8,9.8,0,0,1-.7,3.4,9.1,9.1,0,0,1-2,2.4,9.6,9.6,0,0,1-5.6,1.8A9.3,9.3,0,0,1,403.8,100.4Z" fill="#8e9aa3"/><path d="M439.6,102.2V90.3l-7,10.4-7-10.4v11.9h-3.5V78.8l10.5,15.6,10.5-15.6v23.4Z" fill="#8e9aa3"/><path d="M451.2,88.9h8.2v3.2h-8.2V99h10v3.2H447.8V79.8h13.4v3.1h-10Z" fill="#8e9aa3"/><g opacity="0.5"><rect x="347.6" y="116.5" width="117.2" height="5.84" fill="#8e9aa3"/><rect x="347.6" y="131.2" width="117.2" height="5.84" fill="#8e9aa3"/></g><ellipse cx="85.3" cy="516.5" rx="57.7" ry="12.5" fill="#e6e6e6"/><path d="M136.5,436.8H34.1s-.7,4-1.1,10.2a29.7,29.7,0,0,0-5.2-.3A28.7,28.7,0,0,0,29.5,504a27.7,27.7,0,0,0,10.4-2.3c7,16,20.3,28.4,44.9,27.2C151,525.6,136.5,436.8,136.5,436.8Zm-107.2,58a19.5,19.5,0,1,1-1.2-38.9,16,16,0,0,1,4.4.4c-.2,10.6.5,24.3,4.2,36.8A17.1,17.1,0,0,1,29.3,494.8Z" fill="#00f4d9"/><path d="M136.5,436.8c0,3.7-22.9,6.6-51.2,6.6s-51.2-2.9-51.2-6.6,22.9-6.5,51.2-6.5S136.5,433.2,136.5,436.8Z" fill="#4d4d4d"/><path d="M136.5,436.8c0,2.7-12.4,5-30.3,6a130.3,130.3,0,0,1,.8,14.1c0,29.8-10.5,56.1-26.4,72,1.3.1,2.7,0,4.2,0C151,525.6,136.5,436.8,136.5,436.8Z" fill="#19bfa7"/><path d="M73.5,369.4A42.5,42.5,0,0,0,67.4,391c.2,12.2,8.4,14.1,9.3,21.9s-10.3,18.9-10.3,18.9,14.5-6.4,14.9-18.4-5.1-11.3-9.2-20.3S73.5,369.4,73.5,369.4Z" fill="#e6e6e6" opacity="0.65"/><path d="M91.8,368.9A45.9,45.9,0,0,0,85.4,392c.1,13,8.9,15,9.9,23.3s-11,20.1-11,20.1,15.5-6.7,15.9-19.6-5.5-12-9.8-21.6S91.8,368.9,91.8,368.9Z" fill="#e6e6e6" opacity="0.65"/><rect x="235.5" y="237.5" width="81.1" height="121.5" transform="translate(-57.8 66.5) rotate(-12.4)" fill="#0d0d0d" opacity="0.25"/><rect x="203.5" y="235.8" width="107" height="121.5" transform="translate(-57.9 62.4) rotate(-12.4)" fill="#dbdbdb"/><path d="M226.4,253.1h0l.3,1.7c.2,1,.3,2,.5,3a6.1,6.1,0,0,1,.1,1.4l-1,.3-.8-1.3-2.4-3.6h-.2l-4.7,1.1,5,22.7H227c.1.4.1.7.2,1l-13.1,2.9-.2-1.2,3.4-1.7-5-22.6h-.2l-4.5,1c-.2,0-.2.1-.3.3-.2,1.7-.4,3.3-.7,5a1.3,1.3,0,0,1-.1.6l-1,.3a2.5,2.5,0,0,1-.2-.7,17.2,17.2,0,0,1-.7-2.1c-.2-.6-.3-1.2-.5-1.8s-.5-1.9-.7-2.8l22.7-5.1Z" fill="#0d0d0d"/><g opacity="0.35"><rect x="233.6" y="245.5" width="58.7" height="3.62" transform="translate(-47.1 62.5) rotate(-12.4)" fill="#0d0d0d"/><rect x="235.8" y="255.4" width="58.7" height="3.62" transform="translate(-49.2 63.2) rotate(-12.4)" fill="#0d0d0d"/><rect x="238" y="265.3" width="58.7" height="3.62" transform="translate(-51.3 63.9) rotate(-12.4)" fill="#0d0d0d"/><rect x="210.3" y="281.2" width="89.6" height="3.62" transform="translate(-55 61.6) rotate(-12.4)" fill="#0d0d0d"/><rect x="213" y="293.8" width="89.6" height="3.62" transform="translate(-57.7 62.5) rotate(-12.4)" fill="#0d0d0d"/><rect x="215.5" y="305" width="89.6" height="3.62" transform="translate(-60 63.3) rotate(-12.4)" fill="#0d0d0d"/><rect x="218" y="316.2" width="89.6" height="3.62" transform="translate(-62.4 64.1) rotate(-12.4)" fill="#0d0d0d"/><rect x="220.4" y="327.4" width="89.6" height="3.62" transform="translate(-64.7 64.9) rotate(-12.4)" fill="#0d0d0d"/><rect x="222.9" y="338.5" width="89.6" height="3.62" transform="translate(-67.1 65.7) rotate(-12.4)" fill="#0d0d0d"/></g><path d="M546.2,80l10.2,7.1c1.4,1,1.5,2,.7,3.6l-3.7,6.8c-1.2,2-1.4,3.8.4,5.6s.5,1.2,1,1.7,1,1,1.5,1l10.3.5c1.5,0,2.5.6,2.7,2.1.6,4,1.2,8.1,1.7,12.1a2.2,2.2,0,0,1-1.6,2.6l-9.7,3.1a2.8,2.8,0,0,0-2.3,2.5,9.6,9.6,0,0,1-.8,2.9,1.6,1.6,0,0,0,.4,2.1l6.8,7.3c1.1,1.2,1.2,2.1.3,3.2l-7.8,9.3c-1.1,1.4-2.2,1.6-3.8.8s-5.5-2.5-8.1-3.9-2.7-.9-4,.2a7,7,0,0,1-2.4,1.3c-.9.3-1.1.8-1.1,1.7-.2,3.1-.5,6.3-.7,9.5a2.4,2.4,0,0,1-2.2,2.7l-12.5,1.8a2.4,2.4,0,0,1-2.9-1.9c-1-2.7-2.1-5.4-3-8.2s-1.1-2.4-2.8-2.5-2.2-.6-3.3-.7a2.9,2.9,0,0,0-2,.5l-7.8,6.5c-1.4,1.1-2.3,1.1-3.8.1l-9.2-6.6c-1.6-1.2-1.9-2-1-3.7s2.3-4.7,3.7-6.9,1.5-3.5-.2-5.3a4.6,4.6,0,0,1-.9-1.5,1.9,1.9,0,0,0-2-1.3l-10.1-.4c-1.7-.1-2.5-.7-2.7-2.5-.5-3.9-1-7.8-1.4-11.7-.2-1.7.3-2.4,1.9-3s5.5-1.9,8.3-2.6,3.5-1.5,3.6-3.8a4.7,4.7,0,0,1,.6-2,1.6,1.6,0,0,0-.4-2.1l-6.6-6.9c-1.3-1.4-1.3-2.4-.1-3.9l7.3-8.7c1.3-1.5,2.2-1.6,4-.8s5.2,2.2,7.7,3.5,3,1,4.5-.2a7.8,7.8,0,0,1,2-1.1,1.7,1.7,0,0,0,1.3-1.9l.6-9.4c.2-1.8.8-2.4,2.6-2.7l11.7-1.6c2-.3,2.7.1,3.5,2.1s1.7,4.3,2.3,6.5,1.9,4.1,4.7,4.1a4.5,4.5,0,0,1,1.9.5,1.8,1.8,0,0,0,2-.4c2.5-2.2,5.1-4.2,7.6-6.3a19.9,19.9,0,0,1,1.9-1.2C545.5,79.7,545.9,79.7,546.2,80Zm-45.8,37c-1.9,9.6,3.3,18.9,12.8,22.7s22.7-.2,27.3-9.6c7.3-14.5-2.5-27.7-15.8-29.5a37.5,37.5,0,0,0-5.8-.2C509.7,101.8,502.2,108.5,500.4,117Z" fill="#fe4a5a"/><path d="M436.9,182.4a40.2,40.2,0,0,1,2.2-4.7,4.2,4.2,0,0,0,0-5.5,2.8,2.8,0,0,0-2.3-1.5c-2.3,0-4.5-.2-6.7-.3s-2.4-.7-2.6-2.4-.7-6.1-1.1-9.2.3-2.5,2-3.1l6.4-2.1c1.1-.3,1.8-.8,1.9-2a4.2,4.2,0,0,1,.4-1.5,2,2,0,0,0-.5-2.2l-5-5.5a2.2,2.2,0,0,1-.3-3c2.1-2.8,4.3-5.5,6.5-8.2a1.9,1.9,0,0,1,2.5-.4c1.4.8,3,1.4,4.4,2.3s4,1.9,5.9.1a2.6,2.6,0,0,0,1-1.4c.2-2.4.2-4.8.3-7.2s.8-2.6,2.7-2.9l8.7-1.2c1.8-.2,2.7.3,3.3,2.1a38.1,38.1,0,0,1,1.5,4.4c.5,2.5,1.7,4,4.3,4.2.8,0,1.4.1,2-.5l5.4-4.9c1.3-1.1,2.3-1.2,3.7-.1l7,5.5a2.7,2.7,0,0,1,.9,3.5,23,23,0,0,1-2.3,4.4c-1.4,2.2-1.6,4.1.1,6.2.5.6.8,1.1,1.8,1.1l7.5.3a2.3,2.3,0,0,1,2.3,2c.5,3.3,1,6.5,1.4,9.8a2.2,2.2,0,0,1-1.7,2.7c-1.8.6-3.6,1.4-5.4,1.8s-3.5,1.8-3.6,4.1a3.2,3.2,0,0,0,.5,1.9c1.5,2,3.2,3.7,4.7,5.6a2.3,2.3,0,0,1,.3,3.1c-2,2.6-4.1,5.3-6.3,7.9a2.5,2.5,0,0,1-3.4.6,41,41,0,0,1-4.1-2.2c-2-1.3-4-1.9-5.9,0a3.3,3.3,0,0,0-1,1.4c-.2,2.4-.2,4.8-.4,7.3s-.6,2.4-2.4,2.7l-8.7,1.2c-1.7.2-2.4-.3-3-1.9a24.7,24.7,0,0,1-1.5-4.6c-.5-2.6-1.8-4.1-4.6-4.1a3.4,3.4,0,0,0-1.8.4l-5.3,4.7c-1.5,1.4-2.5,1.5-4,.3l-7.1-5.6a9.5,9.5,0,0,1-1.2-1.6A7.6,7.6,0,0,1,436.9,182.4Zm45-26.2a17.5,17.5,0,0,0-20.1-15.3,17.7,17.7,0,0,0-15.2,20,17.8,17.8,0,0,0,35.3-4.7Z" fill="#0091ff"/><rect x="387.7" y="238.4" width="127" height="65.64" transform="translate(112.9 -132.1) rotate(19)" fill="#fff"/><path d="M427.1,251.8a7.2,7.2,0,0,0-9.4-8.2,7.4,7.4,0,0,0-4.7,4.6,6.9,6.9,0,0,0-.3,3.5v.5a7.3,7.3,0,0,0,11.1,4.5l.3-.2h.2a7.8,7.8,0,0,0,2.5-3.4A5,5,0,0,0,427.1,251.8Z" fill="#fdfeff"/><path d="M427.4,261.4l.4-.4-.4.4Z" fill="#61b6f6"/><path d="M424.2,256.5l-.3.2Z" fill="#61b6f6"/><path d="M432.8,252.9h0c0,.2-.1.4-.1.6S432.8,253.1,432.8,252.9Z" fill="#61b6f6"/><path d="M427.1,251.8a5,5,0,0,1-.2,1.2,7.8,7.8,0,0,1-2.5,3.4h.1l3.4,4.7a12.8,12.8,0,0,0,4.4-6.2,6.5,6.5,0,0,0,.4-1.3l-5.6-1.5Z" fill="#61b6f6"/><path d="M407.1,253.3h0v0Z" fill="#61b6f6"/><path d="M415.2,238.3h0Z" fill="#61b6f6"/><path d="M412.7,251.7a6.9,6.9,0,0,1,.3-3.5,7.4,7.4,0,0,1,4.7-4.6h0l-2.7-5.2a13.3,13.3,0,0,0-7.5,7.9,15.1,15.1,0,0,0-.6,5.9l5.8-.7Z" fill="#dce2e2"/><path d="M417.7,243.6a7.2,7.2,0,0,1,9.4,8.2v.2l5.6,1.5h0c0-.2.1-.4.1-.6a13,13,0,0,0-8.6-14.7,13.2,13.2,0,0,0-9,.1H415l2.7,5.2Z" fill="#00f4d9"/><path d="M427.9,261l-3.4-4.7h-.3l-.3.2a7.3,7.3,0,0,1-11.1-4.5v-.7l-5.8.7h0c0,.1.1.3.1.4h0a.9.9,0,0,0,.1.5h0v.2a13.1,13.1,0,0,0,20.3,8.1l.4-.4Z" fill="#fe4a5a"/><path d="M461.9,263.8a7.4,7.4,0,0,0-4.9-8.2,7.7,7.7,0,0,0-4.5-.1,7.6,7.6,0,0,0-4.8,4.6,8.5,8.5,0,0,0-.3,3.5v.5a7.7,7.7,0,0,0,4.8,5.4,7.6,7.6,0,0,0,6.4-.8l.3-.2c0-.1.1-.1.1-.2a7.2,7.2,0,0,0,2.5-3.4Z" fill="#fdfeff"/><path d="M462.1,273.3l.5-.3-.5.3Z" fill="#61b6f6"/><path d="M459,268.5l-.3.2Z" fill="#61b6f6"/><path d="M467.6,264.9h0c-.1.2-.1.4-.2.5S467.5,265.1,467.6,264.9Z" fill="#61b6f6"/><path d="M461.9,263.8l-.3,1.1a7.2,7.2,0,0,1-2.5,3.4h.1l3.4,4.7a14.1,14.1,0,0,0,4.5-6.2l.3-1.3-5.5-1.6Z" fill="#bfe1fb"/><path d="M441.9,265.3h0a.4.4,0,0,1-.1-.3A.4.4,0,0,0,441.9,265.3Z" fill="#61b6f6"/><path d="M450,250.3h0Z" fill="#61b6f6"/><path d="M447.4,263.6a8.5,8.5,0,0,1,.3-3.5,7.6,7.6,0,0,1,4.8-4.6h-.1l-2.7-5.2a13.2,13.2,0,0,0-7.4,7.9,11.6,11.6,0,0,0-.6,5.8l5.7-.6Z" fill="#dce2e2"/><path d="M452.5,255.5a7.7,7.7,0,0,1,4.5.1,7.4,7.4,0,0,1,4.9,8.2h0l5.5,1.6h0c.1-.1.1-.3.2-.5a13.3,13.3,0,0,0-8.7-14.8,12.9,12.9,0,0,0-8.9.2h-.3l2.7,5.2Z" fill="#00f4d9"/><path d="M462.6,273l-3.4-4.7h-.1c0,.1-.1.1-.1.2l-.3.2a7.6,7.6,0,0,1-6.4.8,7.7,7.7,0,0,1-4.8-5.4v-.5h0l-5.7.6h0v.5h0c0,.1.1.3.1.4h0a.4.4,0,0,0,.1.3,13.1,13.1,0,0,0,20.2,8l.5-.3Z" fill="#dce2e2"/><path d="M496.6,275.8a7.4,7.4,0,0,0-4.8-8.2,7.2,7.2,0,0,0-4.6-.1,7.4,7.4,0,0,0-4.7,4.6,7.1,7.1,0,0,0-.3,3.5v.2a.4.4,0,0,0,.1.3,7,7,0,0,0,4.7,5.3,7.2,7.2,0,0,0,6.4-.8l.3-.2h.2a7.1,7.1,0,0,0,2.4-3.4A2.6,2.6,0,0,0,496.6,275.8Z" fill="#fdfeff"/><path d="M496.8,285.3l.5-.3-.5.3Z" fill="#61b6f6"/><path d="M493.7,280.4l-.3.2Z" fill="#61b6f6"/><path d="M502.3,276.9h0a4.3,4.3,0,0,0-.1.5A4.3,4.3,0,0,1,502.3,276.9Z" fill="#61b6f6"/><path d="M496.6,275.8a2.6,2.6,0,0,1-.3,1.1,7.1,7.1,0,0,1-2.4,3.4.1.1,0,0,1,.1-.1l3.3,4.7a13.2,13.2,0,0,0,4.5-6.1,7.4,7.4,0,0,0,.4-1.4l-5.6-1.5Z" fill="#dce2e2"/><path d="M476.6,277.3h0a.4.4,0,0,0-.1-.3A.4.4,0,0,1,476.6,277.3Z" fill="#61b6f6"/><path d="M484.7,262.3h0Z" fill="#61b6f6"/><path d="M482.2,275.6a7.1,7.1,0,0,1,.3-3.5,7.4,7.4,0,0,1,4.7-4.6h0l-2.7-5.1a12.9,12.9,0,0,0-7.5,7.8,13.4,13.4,0,0,0-.6,5.9l5.7-.6Z" fill="#dce2e2"/><path d="M487.2,267.5a7.2,7.2,0,0,1,4.6.1,7.4,7.4,0,0,1,4.8,8.2h0l5.6,1.5h0a4.3,4.3,0,0,1,.1-.5,13.1,13.1,0,0,0-8.6-14.8,13.2,13.2,0,0,0-9,.2h-.2l2.7,5.1Z" fill="#00f4d9"/><path d="M497.3,284.9l-3.3-4.7a.1.1,0,0,0-.1.1h-.2l-.3.2a7.2,7.2,0,0,1-6.4.8,7,7,0,0,1-4.7-5.3.4.4,0,0,1-.1-.3v-.2h-.1l-5.7.6h0a.6.6,0,0,0,.1.4h0v.5h0a.4.4,0,0,1,.1.3,13.1,13.1,0,0,0,20.2,8l.5-.3Z" fill="#dce2e2"/><rect x="400.5" y="269.8" width="24.7" height="1.75" transform="translate(110.6 -119.7) rotate(19)" fill="#dce2e2"/><rect x="399.2" y="273.6" width="24.7" height="1.75" transform="translate(111.8 -119) rotate(19)" fill="#dce2e2"/><rect x="397.9" y="277.4" width="24.7" height="1.75" transform="translate(113 -118.4) rotate(19)" fill="#dce2e2"/><rect x="435" y="281.6" width="24.7" height="1.75" transform="translate(116.4 -130.3) rotate(19)" fill="#dce2e2"/><rect x="433.6" y="285.5" width="24.7" height="1.75" transform="translate(117.5 -129.6) rotate(19)" fill="#dce2e2"/><rect x="432.3" y="289.3" width="24.7" height="1.75" transform="translate(118.7 -129) rotate(19)" fill="#dce2e2"/><rect x="469.4" y="293.5" width="24.7" height="1.75" transform="translate(122.1 -140.8) rotate(19)" fill="#dce2e2"/><rect x="468.1" y="297.3" width="24.7" height="1.75" transform="translate(123.3 -140.2) rotate(19)" fill="#dce2e2"/><rect x="466.8" y="301.2" width="24.7" height="1.75" transform="translate(124.4 -139.5) rotate(19)" fill="#dce2e2"/><ellipse cx="706.4" cy="552" rx="140.5" ry="22.4" fill="#e6e6e6"/><path d="M632.7,503.1v50.4H809a25.4,25.4,0,0,0,23.8-16.7,26.6,26.6,0,0,0,1.4-8.5A25.1,25.1,0,0,0,809,503.1Z" fill="#fe4a5a"/><path d="M672.1,536.8v16.7H809a25.4,25.4,0,0,0,23.8-16.7Z" fill="#ce3446"/><path d="M595,503v50.5H710.6a25.3,25.3,0,0,0,0-50.5Z" fill="#a32437"/><path d="M595,511.7v32.4H703.8A16.3,16.3,0,0,0,720,527.9a16.5,16.5,0,0,0-4.8-11.5,16.2,16.2,0,0,0-11.4-4.7Z" fill="#fff"/><path d="M629.3,402.7v50.5H805.6a25.3,25.3,0,0,0,0-50.5Z" fill="#89b7d3"/><path d="M669.2,419.6V402.8H806.1a25.1,25.1,0,0,1,23.7,16.8Z" fill="#bfe1fb"/><path d="M595,402.7v50.5H710.6a25.2,25.2,0,0,0,17.8-43.1,24.9,24.9,0,0,0-17.8-7.4Z" fill="#5995b2"/><path d="M595,411.4v32.3H703.8a16.2,16.2,0,1,0,0-32.3Z" fill="#fff"/><path d="M620.2,453.5V504H796.5a25.2,25.2,0,0,0,25.2-25.3,24.9,24.9,0,0,0-3-11.8,23.8,23.8,0,0,0-4.4-6,25.1,25.1,0,0,0-17.8-7.4Z" fill="#00f4d9"/><path d="M624.8,453.5v13.4H818.7a23.8,23.8,0,0,0-4.4-6,25.1,25.1,0,0,0-17.8-7.4Z" fill="#19bfa7"/><path d="M624.8,504V490.6H818.7a23.8,23.8,0,0,1-4.4,6,25.1,25.1,0,0,1-17.8,7.4Z" fill="#19bfa7"/><path d="M574,453.5V504H679.8a25.3,25.3,0,0,0,25.3-25.3,25.5,25.5,0,0,0-7.4-17.8,25.2,25.2,0,0,0-17.9-7.4Z" fill="#1a9681"/><path d="M574,462.1v32.4h99a16.2,16.2,0,0,0,11.5-27.6,16.5,16.5,0,0,0-11.5-4.8Z" fill="#fff"/></svg>