<svg width="584" height="483" xmlns="http://www.w3.org/2000/svg" xmlns:xlink="http://www.w3.org/1999/xlink" viewBox="0 0 583.8 482.6"><defs><linearGradient id="a" x1="77.17" y1="300.73" x2="149.86" y2="300.73" gradientUnits="userSpaceOnUse"><stop offset="0" stop-color="#00f4d9"/><stop offset="1" stop-color="#27af9b"/></linearGradient><linearGradient id="b" x1="44.22" y1="287.93" x2="92.97" y2="287.93" gradientUnits="userSpaceOnUse"><stop offset="0" stop-color="#fe4a5a"/><stop offset="1" stop-color="#d32f43"/></linearGradient><linearGradient id="c" x1="33.54" y1="301.75" x2="60.79" y2="341.07" gradientUnits="userSpaceOnUse"><stop offset="0" stop-color="#bfe1fb"/><stop offset="1" stop-color="#0091ff"/></linearGradient><linearGradient id="d" x1="0.61" y1="360.32" x2="110.94" y2="414.41" gradientUnits="userSpaceOnUse"><stop offset="0" stop-color="gray"/><stop offset="1" stop-color="#666"/></linearGradient><linearGradient id="e" x1="432.71" y1="394.27" x2="487.24" y2="394.27" gradientUnits="userSpaceOnUse"><stop offset="0" stop-color="#0091ff"/><stop offset="1" stop-color="#bfe1fb"/></linearGradient><linearGradient id="f" x1="430.14" y1="389.89" x2="441.44" y2="389.89" gradientUnits="userSpaceOnUse"><stop offset="0" stop-color="#e6e6e6"/><stop offset="1" stop-color="#ccc"/></linearGradient><linearGradient id="g" x1="464.84" y1="390.69" x2="476.14" y2="390.69" xlink:href="#f"/><linearGradient id="h" x1="503.03" y1="415" x2="516.44" y2="415" xlink:href="#e"/><linearGradient id="i" x1="495.46" y1="424.92" x2="504.93" y2="291.42" gradientUnits="userSpaceOnUse"><stop offset="0" stop-color="#b3b3b3"/><stop offset="1" stop-color="gray"/></linearGradient><linearGradient id="j" x1="498.71" y1="379.09" x2="501.86" y2="379.09" gradientUnits="userSpaceOnUse"><stop offset="0" stop-color="#b3b3b3"/><stop offset="1" stop-color="#999"/></linearGradient><linearGradient id="k" x1="406.82" y1="418.63" x2="416.3" y2="285.12" xlink:href="#i"/><linearGradient id="l" x1="410.23" y1="370.62" x2="412.93" y2="370.62" xlink:href="#j"/><linearGradient id="m" x1="116.15" y1="218.38" x2="340.97" y2="218.38" gradientUnits="userSpaceOnUse"><stop offset="0" stop-color="#e6e6e6"/><stop offset="1" stop-color="#b3b3b3"/></linearGradient><linearGradient id="n" x1="216.93" y1="164.44" x2="258.66" y2="164.44" xlink:href="#m"/><linearGradient id="o" x1="260.41" y1="307.96" x2="260.43" y2="307.94" gradientUnits="userSpaceOnUse"><stop offset="0" stop-color="#0071bc"/><stop offset="1" stop-color="#0091ff"/></linearGradient><linearGradient id="p" x1="343.66" y1="412.17" x2="363.97" y2="412.17" gradientUnits="userSpaceOnUse"><stop offset="0" stop-color="#27af9b"/><stop offset="1" stop-color="#00f4d9"/></linearGradient><linearGradient id="q" x1="354.14" y1="411.43" x2="387.31" y2="411.43" xlink:href="#b"/><linearGradient id="r" x1="371.57" y1="411.52" x2="387.31" y2="411.52" xlink:href="#o"/><linearGradient id="s" x1="253.54" y1="380.42" x2="273.37" y2="380.42" xlink:href="#p"/><linearGradient id="t" x1="241.12" y1="394.62" x2="263.78" y2="394.62" xlink:href="#b"/><linearGradient id="u" x1="241.12" y1="396.21" x2="251.15" y2="396.21" xlink:href="#o"/><linearGradient id="v" x1="225.38" y1="390.56" x2="230.42" y2="390.56" xlink:href="#j"/><linearGradient id="w" x1="130.12" y1="398.99" x2="139.6" y2="265.48" xlink:href="#i"/><linearGradient id="x" x1="131.97" y1="372.94" x2="134.8" y2="372.94" xlink:href="#j"/><linearGradient id="y" x1="218.4" y1="405.25" x2="227.88" y2="271.75" xlink:href="#i"/><linearGradient id="z" x1="220.26" y1="379.09" x2="223.41" y2="379.09" xlink:href="#j"/><linearGradient id="aa" x1="362.32" y1="145.27" x2="368.5" y2="263.33" xlink:href="#d"/><linearGradient id="ab" x1="347.02" y1="255.33" x2="402.7" y2="255.33" gradientUnits="userSpaceOnUse"><stop offset="0" stop-color="#ccc"/><stop offset="1" stop-color="#999"/></linearGradient><linearGradient id="ac" x1="355.55" y1="211.74" x2="399.27" y2="211.74" xlink:href="#i"/><linearGradient id="ad" x1="379.66" y1="205.18" x2="417.67" y2="329.1" gradientUnits="userSpaceOnUse"><stop offset="0" stop-color="#666"/><stop offset="1" stop-color="#4d4d4d"/></linearGradient><linearGradient id="ae" x1="248.98" y1="205.9" x2="282.87" y2="205.9" gradientUnits="userSpaceOnUse"><stop offset="0" stop-color="#ccc"/><stop offset="1" stop-color="#b3b3b3"/></linearGradient><linearGradient id="af" x1="277.63" y1="145.18" x2="476.94" y2="145.18" xlink:href="#ae"/><linearGradient id="ag" x1="264.31" y1="297.14" x2="344.6" y2="297.14" gradientUnits="userSpaceOnUse"><stop offset="0" stop-color="#b3b3b3"/><stop offset="1" stop-color="#b3b3b3"/></linearGradient><linearGradient id="ah" x1="286.2" y1="297.14" x2="344.6" y2="297.14" gradientUnits="userSpaceOnUse"><stop offset="0" stop-color="gray"/><stop offset="1" stop-color="#4d4d4d"/></linearGradient><linearGradient id="ai" x1="442.24" y1="426.08" x2="442.24" y2="437.86" xlink:href="#e"/><linearGradient id="aj" x1="470.08" y1="426.88" x2="470.08" y2="438.63" xlink:href="#e"/><linearGradient id="ak" x1="62.08" y1="173.85" x2="252.35" y2="173.85" gradientUnits="userSpaceOnUse"><stop offset="0" stop-color="#0091ff"/><stop offset="1" stop-color="#0071bc"/></linearGradient><linearGradient id="al" x1="66.18" y1="121.9" x2="577.24" y2="121.9" xlink:href="#ak"/><linearGradient id="am" x1="4118.12" y1="2879.47" x2="4125.98" y2="2879.47" gradientTransform="translate(-4299.8 2116.4) rotate(-59.5)" xlink:href="#f"/><linearGradient id="an" x1="4109.05" y1="2894.48" x2="4122.17" y2="2894.48" gradientTransform="translate(-4640.6 -996.5) rotate(-23.2)" xlink:href="#f"/><linearGradient id="ao" x1="4119.08" y1="2900.15" x2="4143.76" y2="2900.15" gradientTransform="translate(-4299.8 2116.4) rotate(-59.5)" xlink:href="#f"/><linearGradient id="ap" x1="-1989.41" y1="324.68" x2="-1989.24" y2="308.52" gradientTransform="translate(2014.2 617.5) rotate(23.7)" xlink:href="#f"/><linearGradient id="aq" x1="-1984.24" y1="311.87" x2="-1975.6" y2="300.46" gradientTransform="translate(2014.2 617.5) rotate(23.7)" xlink:href="#f"/><linearGradient id="ar" x1="55.21" y1="116.99" x2="64.15" y2="116.99" gradientTransform="translate(142.8 15.3) rotate(66.3)" xlink:href="#o"/><linearGradient id="as" x1="55.87" y1="116.07" x2="67.55" y2="116.07" gradientTransform="translate(143.2 12.9) rotate(66.3)" xlink:href="#o"/><linearGradient id="at" x1="56.54" y1="114.56" x2="68.22" y2="114.56" gradientTransform="translate(142.2 11.4) rotate(66.3)" xlink:href="#o"/><linearGradient id="au" x1="57.21" y1="113.04" x2="68.89" y2="113.04" gradientTransform="translate(141.2 9.9) rotate(66.3)" xlink:href="#o"/><linearGradient id="av" x1="57.87" y1="111.52" x2="69.55" y2="111.52" gradientTransform="translate(140.2 8.4) rotate(66.3)" xlink:href="#o"/><linearGradient id="aw" x1="58.54" y1="110" x2="70.22" y2="110" gradientTransform="translate(139.2 6.8) rotate(66.3)" xlink:href="#o"/><linearGradient id="ax" x1="59.2" y1="108.48" x2="70.89" y2="108.48" gradientTransform="translate(138.2 5.3) rotate(66.3)" xlink:href="#o"/><linearGradient id="ay" x1="59.87" y1="106.96" x2="71.55" y2="106.96" gradientTransform="translate(137.3 3.8) rotate(66.3)" xlink:href="#o"/><linearGradient id="az" x1="575.15" y1="232.97" x2="549.17" y2="214.49" xlink:href="#f"/><linearGradient id="ba" x1="555.32" y1="220.08" x2="537.96" y2="227.93" gradientTransform="translate(164.5 -230.9) rotate(27.5)" xlink:href="#o"/><linearGradient id="bb" x1="553.43" y1="215.9" x2="536.07" y2="223.76" gradientTransform="translate(162.3 -230.4) rotate(27.5)" xlink:href="#o"/><linearGradient id="bc" x1="551.55" y1="211.73" x2="534.19" y2="219.58" gradientTransform="translate(160.2 -229.9) rotate(27.5)" xlink:href="#o"/><linearGradient id="bd" x1="545.24" y1="229.56" x2="531.47" y2="201.14" xlink:href="#f"/><linearGradient id="be" x1="542.15" y1="218.81" x2="524.79" y2="226.66" gradientTransform="translate(162.4 -225) rotate(27.5)" xlink:href="#o"/><linearGradient id="bf" x1="540.26" y1="214.64" x2="522.9" y2="222.49" gradientTransform="translate(160.3 -224.5) rotate(27.5)" xlink:href="#o"/><linearGradient id="bg" x1="538.38" y1="210.47" x2="521.02" y2="218.32" gradientTransform="translate(158.1 -224) rotate(27.5)" xlink:href="#o"/><linearGradient id="bh" x1="522.63" y1="207.13" x2="532.98" y2="207.13" gradientTransform="translate(155.3 -220.3) rotate(27.5)" xlink:href="#f"/><linearGradient id="bi" x1="-1997.38" y1="315.72" x2="-1997.21" y2="299.56" gradientTransform="translate(2014.2 617.5) rotate(23.7)" xlink:href="#f"/><linearGradient id="bj" x1="-1992.2" y1="302.91" x2="-1983.56" y2="291.5" gradientTransform="translate(2014.2 617.5) rotate(23.7)" xlink:href="#f"/><linearGradient id="bk" x1="51.51" y1="105.59" x2="60.46" y2="105.59" gradientTransform="translate(130.2 11.9) rotate(66.3)" xlink:href="#o"/><linearGradient id="bl" x1="52.18" y1="104.67" x2="63.86" y2="104.67" gradientTransform="translate(130.6 9.5) rotate(66.3)" xlink:href="#o"/><linearGradient id="bm" x1="52.85" y1="103.15" x2="64.53" y2="103.15" gradientTransform="translate(129.6 8) rotate(66.3)" xlink:href="#o"/><linearGradient id="bn" x1="53.51" y1="101.63" x2="65.19" y2="101.63" gradientTransform="translate(128.6 6.4) rotate(66.3)" xlink:href="#o"/><linearGradient id="bo" x1="54.18" y1="100.11" x2="65.86" y2="100.11" gradientTransform="translate(127.6 4.9) rotate(66.3)" xlink:href="#o"/><linearGradient id="bp" x1="54.85" y1="98.59" x2="66.53" y2="98.59" gradientTransform="translate(126.6 3.4) rotate(66.3)" xlink:href="#o"/><linearGradient id="bq" x1="55.51" y1="97.07" x2="67.19" y2="97.07" gradientTransform="translate(125.6 1.9) rotate(66.3)" xlink:href="#o"/><linearGradient id="br" x1="56.18" y1="95.55" x2="67.86" y2="95.55" gradientTransform="translate(124.6 0.4) rotate(66.3)" xlink:href="#o"/></defs><path d="M521,414.5c-8.7,32.1-35.3,51.1-72.3,28.3-55.9-34.5-81.7-17.2-132.5,7s-81.1-58.4-84-64.6c-.4-.9-.8-1.8-1.1-2.7-11.5-30.3,27.4-56.8,54.4-37.2s40.7-35.1,101.3-70.2,115,25.8,132.5,83.5C525.3,378.1,525.5,398,521,414.5Z" fill="#bfe1fb" opacity="0.03"/><path d="M583.5,304.8c-2.6,27-34.5,46.1-70,53.7-41.4,8.8-87.6,2.1-98.3-25.9-19.8-52.1-27.4-121.9-30.7-139.2,0,0-10-60.9,41.2-99.7A56.3,56.3,0,0,1,441.2,85c36.8-12.6,42,55,63.2,95.9C528.2,226.9,589.1,246.2,583.5,304.8Z" fill="#bfe1fb" opacity="0.3"/><path d="M513.5,358.5c-41.4,8.8-87.6,2.1-98.3-25.9-19.8-52.1-27.4-121.9-30.7-139.2,0,0-10-60.9,41.2-99.7A56.3,56.3,0,0,1,441.2,85c2.1,9.2,4,18.5,6.1,26.3,9.3,34.7,0,48-14.1,83.1s13.7,63.8,60.1,91.6C526.2,305.8,519.9,340.2,513.5,358.5Z" fill="#bfe1fb" opacity="0.03"/><path d="M285.4,98.1c-4.1,11.1-8,21.8-8.8,30.5-4,42.4-35.5,38-96.4,41.6s-46,57.3-80.7,152.9c-11.8,32.6-25.7,51.5-38.8,62.2l-2.2-1.1C-28.2,366.9,101.3,247.1,94,180.5S135.2,64.7,224.8,75.2C249.9,78.1,270.4,86.8,285.4,98.1Z" opacity="0.05"/><path d="M274.8,187.7c-70.6,19-74.6,47.7-104.5,145.3-27,88.3-96.6,58.8-109.6,52.3l-2.2-1.1C-28.2,366.9,101.3,247.1,94,180.5S135.2,64.7,224.8,75.2c25.1,2.9,45.6,11.6,60.6,22.9C323.8,127.2,325.6,174.1,274.8,187.7Z" fill="#bfe1fb" opacity="0.3"/><path d="M531,315.6c-68.6,26.3-48.4,12.6-73.8,46.4s-111.4-16.5-145.3,23-52.8,55.7-52.8,55.7-35.1,48.4-80.7,41.2S111,447.2,101.7,370.1,44,313.2,23.4,232.9c-4.2-16.4-5.7-29.9-4.7-40.9,3.7-42.9,45.2-47.9,113.3-39,85.5,11.3,139.2-15.7,163.4-48.8s65.7-54,113.8-16.5,29.4,38.3,93.2,81.5c38.3,25.9,65.6,64.1,66.5,96.1C569.5,286.6,558.4,305.2,531,315.6Z" fill="#bfe1fb" opacity="0.5"/><path d="M531,315.2c-68.6,26.3-48.4,12.6-73.8,46.4s-111.4-16.5-145.3,23-52.8,55.7-52.8,55.7-35.1,48.4-80.7,41.2S111,446.8,101.7,369.7,44,312.8,23.4,232.5c-4.2-16.4-5.7-29.9-4.7-40.9,29.6-3.6,83.5-1.6,108.2,53.6,35.1,78.3,54.5,41.6,164.2,4.5S420.3,218.2,464.6,263c31.6,31.9,74.1,4.7,104.3,1.9C569.5,286.2,558.4,304.8,531,315.2Z" opacity="0.03"/><ellipse cx="290.9" cy="437.7" rx="278.2" ry="21.4" fill="#bfe1fb" opacity="0.3"/><path d="M140.8,284.6c-8.1,14.9-24.8,22.9-23.6,36.6s-7.1,17.9-17,25.4-2.8,13.3-2.8,13.3-5.7-.2-11-.8-7.6-1.1-8.5-2,.6-18,5.3-28.2-.3-21.7.9-35.9,14.6-20.2,23.2-27.9,0-30,26-21.7l3.6,1.3C158.3,253.5,148.4,270.5,140.8,284.6Z" fill="url(#a)"/><path d="M140.8,284.6c-8.1,14.9-24.8,22.9-23.6,36.6s-7.1,17.9-17,25.4-2.8,13.3-2.8,13.3-5.7-.2-11-.8c.8-7.5,3-17.3,8.7-26,11.2-17.1-4-32.5,9.3-45.2s28.4-29.3,32.5-43.2C158.3,253.5,148.4,270.5,140.8,284.6Z" fill="#212121" opacity="0.1"/><path d="M82.3,293.3c4,9.9,13.6,16.4,6.1,33.7s-8.9,27.9-8.9,27.9-.9,2.2-4.6,3.5a18.9,18.9,0,0,1-6.9.8s3.1-2.4,0-9.2-15.5-12.4-15.5-23.6-1.2-18.2-5.2-23.8-5.3-24.5,4-33.5,0-22.6.9-33.4,12.1-22.3,25.7-18.3h.4c13,4,1.5,9.6,9.2,18.5s6.5,23.5.9,34.1S78.2,283.4,82.3,293.3Z" fill="url(#b)"/><path d="M75.9,317c4.3,5.3.8,30.5-1,41.4a18.9,18.9,0,0,1-6.9.8s3.1-2.4,0-9.2-15.5-12.4-15.5-23.6-1.2-18.2-5.2-23.8-5.3-24.5,4-33.5,0-22.6.9-33.4,12.1-22.3,25.7-18.3h.4c-4.4,7.5-6.8,19-2.1,26.4,7.1,11.1-5.3,25.4-9.9,38.1S70.3,310.2,75.9,317Z" fill="#212121" opacity="0.1"/><path d="M66.8,359.5a57.2,57.2,0,0,1-7.2.4s-23.2-3.1-21.9-15.2,2.1-14.6-10.3-21.4-13-17.6-14.8-27.7S-1.7,285.2.2,273.5c1.2-7.5,4.6-12,9.9-13.9,3-1.2,6.7-1.4,10.8-1,11.5,1.2,7.8,22.3,14.6,25.4s14.2-6.5,17.3,7.4,4.4,30.7,11.8,35.6,5.6,28.8,5.3,29.5S71.9,358.7,66.8,359.5Z" fill="url(#c)"/><path d="M66.8,359.5a57.2,57.2,0,0,1-7.2.4s-23.2-3.1-21.9-15.2,2.1-14.6-10.3-21.4-13-17.6-14.8-27.7S-1.7,285.2.2,273.5c1.2-7.5,4.6-12,9.9-13.9,2.3,9.4,7.3,24,16.9,28.9,14.5,7.4,12.7,23.2,19.5,31.9s9.9,11.4,10.2,17.3C56.9,341.5,62.7,352.2,66.8,359.5Z" fill="#212121" opacity="0.1"/><path d="M64.4,355.3c-.6-.7-15.3-17.6-16.5-32.2S19.5,281,19.3,280.7l.8-.9c1.2,1.2,27.8,28.6,29,43.2s16.1,31.3,16.3,31.5Z" fill="#fff"/><path d="M72.6,354H71.4c0-.2,2.7-25.4-2.1-37.5s.2-46.8,3.7-55.9-2.7-19.5-2.8-19.6l1.1-.6c.3.5,6.3,11.9,2.9,20.7s-8.5,43.1-3.8,55S72.8,353,72.6,354Z" fill="#fff"/><path d="M86.9,354.7l-1.2-.2c.1-1.9,4.2-46.8,17.5-57.4,8.3-6.5,11.9-15.4,14.9-22.6,1.7-4.2,3.2-7.8,5.2-9.8l.9.8c-1.9,1.9-3.3,5.4-5,9.5-3,7.3-6.7,16.4-15.2,23.1C91,308.4,86.9,354.2,86.9,354.7Z" fill="#fff"/><path d="M110,360.9l-15.6,69-.5,2.1s-7.2,3.9-27.3,3.9a103.3,103.3,0,0,1-20.9-2,34.6,34.6,0,0,1-4.7-1.2l-2.3-.7L30,392.9l-6.1-27.8a95.6,95.6,0,0,1,14.3-6.6l2-.7a86.7,86.7,0,0,1,19.5-4.5,96.3,96.3,0,0,1,35.9,2.4A77.8,77.8,0,0,1,110,360.9Z" fill="url(#d)"/><path d="M110,360.9l-15.6,69-.5,2.1s-7.2,3.9-27.3,3.9a103.3,103.3,0,0,1-20.9-2c12.3.1,30.4-2.6,38.1-17.6,9.5-18.8,6.7-44.6,11.8-60.6A77.8,77.8,0,0,1,110,360.9Z" opacity="0.05"/><path d="M516.4,416.3a20.1,20.1,0,0,0-4.9,4.2l-.7,1.1c-3.2,5.8-12.5,7.8-12.5,7.8s-11.1,3.5-33.3,3.1c-28.3-.6-34.1-3.1-34.1-3.1s-2.8-23,3.7-37.5,5.1-24.2,7.6-33.5c.5-1.8,1-2.4,1.5-2.2,2.2,1,3.8,19.6,3.8,19.6l12.9.4s-.8-16.1-.1-23.6a1.3,1.3,0,0,0,.1-.6c.8-7.3,11.7,14.5,17.8,23.4s15.3,28.6,16.5,43.9c0,0,.2,1.1,1.1,1.2h0c1,.2,2.9-.7,6.2-4.8l1-1.3a29.1,29.1,0,0,1,5.4-4.9c4-2.7,7.9-2.9,11.5-.4l.2.2C523.7,411.8,520.3,413.7,516.4,416.3Z" fill="#fe4a5a"/><path d="M495.8,420.5h0c-1,2.2-6.1-8.2-8.6-19.5s-16.1-25.4-18.1-33.5c-1.2-4.9-5.5-10.9-8.8-14.9a1.3,1.3,0,0,0,.1-.6c.8-7.3,11.7,14.5,17.8,23.4s15.3,28.6,16.5,43.9C494.7,419.3,494.9,420.4,495.8,420.5Z" fill="#fff" opacity="0.1"/><path d="M516.4,416.3a20.1,20.1,0,0,0-4.9,4.2l-.7,1.1c-3.2,5.8-12.5,7.8-12.5,7.8s-11.1,3.5-33.3,3.1c-28.3-.6-34.1-3.1-34.1-3.1s-2.8-23,3.7-37.5,5.1-24.2,7.6-33.5c.5-1.8,1-2.4,1.5-2.2.1,6.1.2,27.2-5.7,37.1-6.9,11.7-4.8,33.1,3.2,33.9S494.5,432,505,422c4.9-4.7,10.2-9.8,14.9-12.9l.2.2C523.7,411.8,520.3,413.7,516.4,416.3Z" fill="#212121" opacity="0.1"/><path d="M434.9,391.2s23.2,12.9,49.2-5.5l3.1,6.8s-24.5,19.7-54.5,4.7Z" fill="url(#e)"/><circle cx="435.8" cy="389.9" r="5.6" fill="url(#f)"/><circle cx="470.5" cy="390.7" r="5.6" fill="url(#g)"/><path d="M516.4,416.3a20.1,20.1,0,0,0-4.9,4.2c-2.2-4.4-8.5-6.1-8.5-6.1a29.1,29.1,0,0,1,5.4-4.9A47.9,47.9,0,0,1,516.4,416.3Z" fill="url(#h)"/><path d="M272.3,353.2s4.1,7.2-26.1,6.8-52.9-1.6-60.6-11.7,3.7-37.5-4.4-64.5-16.1-70.6,2-80.7,84.7-1.2,97.3,37.1S272.3,353.2,272.3,353.2Z" fill="#fe4a5a"/><ellipse cx="227.9" cy="422.6" rx="27.3" ry="4" fill="#fe4a5a"/><rect x="495.6" y="319.7" width="6.3" height="118.82" fill="url(#i)"/><rect x="498.7" y="319.7" width="3.2" height="118.82" fill="url(#j)"/><rect x="407.5" y="319.7" width="5.4" height="101.88" fill="url(#k)"/><rect x="410.2" y="319.7" width="2.7" height="101.88" fill="url(#l)"/><path d="M198.5,308s5.3-35.5-25.4-64.2-55.2-55.2-56.9-64.5,18.6-27.9,34.7-35.5l1-.5c11.8-5.2,36.7-9.8,50.7-12.1l10.1-1.6,2,18.2-5.6,5-26.7,24.5c10.1,0,34.7,11.7,34.7,11.7,30.7,15.3,41.6,1.6,41.6,1.6L276,160.7a102.3,102.3,0,0,0-15.6-7.8c-9.3-3.7-14.6-3.9-14.6-3.9l-.5-19.4c4.7-.4,9.5-.7,14.5-.8,32.9-.6,70.7,6.1,70.7,6.1,2.8,11.6-1.5,26-6.3,39.8-4.3,12.2-8.9,23.9-9.5,32.8-1.2,18.8,25.9,99.2,26.3,100.5H198.5Z" fill="url(#m)"/><path d="M260.4,152.9c-9.3-3.7-14.6-3.9-14.6-3.9l-.5-19.4c4.7-.4,9.5-.7,14.5-.8l-3,5.9Z" opacity="0.05"/><path d="M214.7,147.8l-5.6,5c-2.3-3.3-8.2-12.9-6.5-21.6l10.1-1.6Z" opacity="0.05"/><path d="M198.5,308s5.3-35.5-25.4-64.2-55.2-55.2-56.9-64.5,18.6-27.9,34.7-35.5l1-.5S145.3,174,178,180.1l.3-.2,4.1-2.6c8.5,0,27.2,8.2,33,10.9l1.7.8c30.7,15.3,41.6,1.6,41.6,1.6l.4-.8h0L276,160.7a100.1,100.1,0,0,0,12.5,5.6,143.3,143.3,0,0,0,35.7,8.4c-4.3,12.2-8.9,23.9-9.5,32.8-1.2,18.8,25.9,99.2,26.3,100.5H198.5Z" fill="#00f4d9"/><path d="M258.7,190.6c-8.9,17.7-41.6-1.6-41.6-1.6s-.4-29.9,0-36,.4-16.1,14.9-21.3,25.9,14.9,25.9,29.8-14.8,11.2-17.7,10.6h-.5c0,2.2,4.7,6.9,9.5,10.9h0C253.9,187,258.7,190.6,258.7,190.6Z" fill="url(#n)"/><path d="M249.2,183h0c-13.7-5.8-20.2-14.8-20.2-14.8,3.5,2.1,9.4,3.5,10.9,3.9h-.2c0,2.2,4.7,6.9,9.5,10.9Z" opacity="0.1"/><path d="M288.5,166.3c-1.9.3-12.3,2.5-16.3,9.1s-10.9,12.6-13.1,14.4L276,160.7A100.1,100.1,0,0,0,288.5,166.3Z" opacity="0.05"/><path d="M215.4,188.2c-20.7-8.1-34.3-8.4-37.1-8.3l4.1-2.6C190.9,177.3,209.6,185.5,215.4,188.2Z" opacity="0.05"/><path d="M364,409.9l-5.7,13.7a121.1,121.1,0,0,1-14.6-8.4,283.9,283.9,0,0,1-48.2-40.5l-5.3-5.8-.5-.6c-21.4-24.6-32.2-18.2-67.3-23s-23.9-37.1-23.9-37.1h83.8a42.7,42.7,0,0,1,14.3,12.1c5.7,7.5,6.4,17.8,15.7,35.8,1.2,2.3,2.5,4.8,4.1,7.4l.5.8c8.4,13.9,24.5,28.1,35.5,36.9C359.2,406.5,364,409.9,364,409.9Z" fill="#0091ff"/><path d="M316.9,364.3l-21.4,10.4-5.3-5.8,22.1-12.8c1.2,2.3,2.5,4.8,4.1,7.4Z" opacity="0.15"/><path d="M260.4,307.9h0Z" fill="url(#o)"/><path d="M254.2,391.9l-4-11.3s58.1-33.5,64.1-47.6a49.5,49.5,0,0,1-7-1.6,120.6,120.6,0,0,1-15.1-5.7c-3.9-1.8-8.3-4.1-13-6.8L260.5,308H341s14.9,16.5,16.9,25S254.2,391.9,254.2,391.9Z" fill="#0091ff"/><path d="M307.3,331.4c-1.7-.5-3.7-1.1-6-2a33.9,33.9,0,0,0-4.7-9.1,43.9,43.9,0,0,0-4.9-5.4,21.7,21.7,0,0,1,6.7.1C303.6,315.9,306.2,325.3,307.3,331.4Z" opacity="0.1"/><path d="M364,409.7l-5.7,13.7a121.1,121.1,0,0,1-14.6-8.4s2.9-9.4,8.7-14C359.2,406.3,364,409.7,364,409.7Z" fill="url(#p)"/><path d="M251.7,136.7c-7.8,9.7-28.7,4.4-31.6,8.1s-2.9,11.3-2.9,12h-.1l-.4-.3c-10.4-7.3-13.7-17-7.1-28.3s16.7-12.7,27.2-13.4,17.5-11.3,18.4-12.5h.1C261.5,108,259.6,126.9,251.7,136.7Z" fill="#00f4d9"/><path d="M355.5,424.2s10,5.9,16.2,5.3h.7c6.1-1.2,17-25.4,14.6-33.5a3.5,3.5,0,0,0-2-2.4h0c-4.6-1.8-14.6,7.5-17,10.5s-4.4,2.8-6.9.8-4.4.4-6.4,3.2,2,2.1,3.2,5.7-1.7,8.6-1.7,8.6C353.3,423.3,355.5,424.2,355.5,424.2Z" fill="url(#q)"/><path d="M372.4,429.4h-.7c-1.7-21.1,13-36,13.3-36a5.8,5.8,0,0,1,2,2.4C389.4,404,378.5,428.2,372.4,429.4Z" fill="url(#r)"/><path d="M273.4,382.6s-5.2-.5-6.8-11.9l-13.1,7.9,4.3,11.6Z" fill="url(#s)"/><path d="M263.8,387.3c-.6,1.4-.7,1-3.5,3.4s-3.7,4.4-3.7,10.5a11.9,11.9,0,0,1-5.4,10,7.8,7.8,0,0,1-5.4.9c-6.1-1.2-4.5-17.8-4.5-20.6s-.8-11.3,3.2-11.3h.5c4-.3,9.3-4.4,10.7-2.8s.1,7.6,3.8,6.8S263.8,387.3,263.8,387.3Z" fill="url(#t)"/><path d="M251.2,411.2a7.8,7.8,0,0,1-5.4.9c-6.1-1.2-4.5-17.8-4.5-20.6s-.8-11.3,3.2-11.3h.5s-5,30.1,6.1,31Z" fill="url(#u)"/><rect x="225.4" y="359.6" width="5" height="61.86" fill="url(#v)"/><rect x="129.1" y="319.7" width="5.6" height="106.52" fill="url(#w)"/><rect x="132" y="319.7" width="2.8" height="106.52" fill="url(#x)"/><rect x="217.1" y="319.7" width="6.3" height="118.82" fill="url(#y)"/><rect x="220.3" y="319.7" width="3.2" height="118.82" fill="url(#z)"/><polygon points="476.9 147 455.4 239.2 449.7 263.4 254.2 268.4 282.9 147 476.9 147" fill="url(#aa)"/><path d="M402.7,301.1H347v-4c.7.1,29.6,5,35.5-3.2,8.1-11.3-13.3-81.1-13.3-81.1l1.5-1.5,1.7-1.8Z" fill="url(#ab)"/><path d="M402.7,301.1h-3.2l-52.3.2-.2-2.2c12.7,1.4,44.8,3.9,45.8-5.8s-17-66.6-22.1-82l1.7-1.8Z" opacity="0.05"/><path d="M455.4,239.2l-5.7,24.2-195.5,5L282.9,147h18c-7.8,25.1-18.4,70.4,5.6,85.7C336.6,252,416.5,220.9,455.4,239.2Z" opacity="0.05"/><path d="M386.2,224.9l-16.9.5a13.5,13.5,0,0,1-13.4-16.5v-.5a13.5,13.5,0,0,1,13.1-10.3h16.7a13.4,13.4,0,0,1,13.1,16.5h0A13.3,13.3,0,0,1,386.2,224.9Z" fill="url(#ac)"/><polygon points="417.6 301.1 402.7 301.1 372.4 209.5 387.4 209.5 417.6 301.1" fill="url(#ad)"/><polygon points="254.2 268.4 249 264.8 277.6 143.4 282.9 147 254.2 268.4" fill="url(#ae)"/><polygon points="476.9 147 471.7 143.4 277.6 143.4 282.9 147 476.9 147" fill="url(#af)"/><path d="M344.6,295.6v3.1a2.5,2.5,0,0,1-2.5,2.4H266.8a2.5,2.5,0,0,1-2.5-2.4,2.9,2.9,0,0,1,.7-1.8,2.4,2.4,0,0,1,1.7-.7l19.5-.8,55.8-2.2A2.4,2.4,0,0,1,344.6,295.6Z" fill="url(#ag)"/><path d="M344.6,295.6v3.1a2.5,2.5,0,0,1-2.5,2.4H287.5c4.1-3.4-1.3-5.7-1.3-5.7l55.8-2.2A2.4,2.4,0,0,1,344.6,295.6Z" fill="url(#ah)"/><rect x="101.7" y="301.1" width="434.1" height="18.56" fill="#fe4a5a"/><rect x="101.7" y="301.1" width="106.1" height="18.56" opacity="0.1"/><path d="M399.2,212.7a13.4,13.4,0,0,0-13.4-12.2H369.1A13.4,13.4,0,0,0,356,210.8v.4l-.3,2a15.6,15.6,0,0,1,.3-4.3v-.5a13.5,13.5,0,0,1,13.1-10.3h16.7A13.4,13.4,0,0,1,399.2,212.7Z" opacity="0.05"/><path d="M251.7,136.7c-7.8,9.7-28.7,4.4-31.6,8.1s-2.9,11.3-2.9,12h-.3l-.2-.4c-1.5-2.5-8-15.6,13.5-22.2s24.8-29.1,25-32h.1C261.5,108,259.6,126.9,251.7,136.7Z" opacity="0.05"/><path d="M446.5,426.1v5.6l-8.5-.8v-5a3.7,3.7,0,0,1,3.8-3.5h.9A3.7,3.7,0,0,1,446.5,426.1Z" fill="url(#ai)"/><path d="M446.5,426.1h0a10.4,10.4,0,0,0-.4-1,5.6,5.6,0,0,0-1.6-1.6l-.4,2.4s.4-2,0-2.4-.8-.4-2.1-.4-1.2,2.2-1.2,2.4v-2c-2.8,0-2.8,4.3-2.8,4.3v-1.8a3.7,3.7,0,0,1,3.8-3.7h.9A3.7,3.7,0,0,1,446.5,426.1Z" opacity="0.1"/><path d="M474.3,426.9v5.5h-8.5v-3.8h0v-1.8a3.7,3.7,0,0,1,3.8-3.7h1A3.7,3.7,0,0,1,474.3,426.9Z" fill="url(#aj)"/><path d="M474.3,426.9h0a4.2,4.2,0,0,0-.4-1,5.6,5.6,0,0,0-1.6-1.6l-.4,2.4s.5-2,0-2.4-.8-.4-2-.4-1.3,2.2-1.2,2.4v-2c-2.9,0-2.9,4.3-2.9,4.3v-1.8a3.7,3.7,0,0,1,3.8-3.7h1A3.7,3.7,0,0,1,474.3,426.9Z" opacity="0.1"/><path d="M226.7,249.9h-1.3v-2h6v2.1Zm-7.4-.1-6.1-.3v-2l6,.3Zm18.2-.1v-2.1c2.1,0,4.1-.2,6-.3l.2,2Zm-30.4-.6-6-.5.2-2,6,.5Zm42.5-.3-.2-2,2.7-.3h.1v2Zm-54.6-1-6-.9.4-1.9,5.9.8Zm-12-1.9-5.9-1.2.4-2,5.9,1.2Zm-11.8-2.7-5.9-1.6.6-1.9,5.8,1.6Zm-11.7-3.4-5.7-2.1.7-1.8,5.6,2Zm-11.4-4.3-2.8-1.2-2.8-1.3.9-1.8,2.7,1.2,2.8,1.2ZM137,230.4l-5.4-2.8,1-1.8c1.7,1,3.5,1.9,5.3,2.8Zm-10.7-5.7-5.2-3.1,1-1.7,5.2,3Zm-10.4-6.4-5-3.4,1.2-1.7c1.6,1.2,3.3,2.3,5,3.4Zm-9.9-7.1-4.7-3.8,1.3-1.5,4.7,3.8Zm-9.2-7.8c-1.5-1.4-3-2.8-4.4-4.3l1.4-1.4,4.3,4.2Zm-8.6-8.7a57.1,57.1,0,0,1-3.9-4.7l1.5-1.2,3.9,4.5Zm-7.6-9.5-3.4-5.1,1.7-1.1c1,1.7,2.2,3.4,3.3,5Zm-6.5-10.4c-1-1.8-1.9-3.6-2.8-5.4l1.8-.9c.9,1.8,1.8,3.6,2.8,5.4Zm-5.2-11c-.8-1.9-1.5-3.9-2.1-5.8l1.9-.6a53.7,53.7,0,0,0,2.1,5.6Zm-3.8-11.7c-.5-1.9-.9-3.9-1.3-5.9l2-.4a54.3,54.3,0,0,0,1.3,5.8Zm-2.3-12c-.2-2-.4-4-.5-6.1h2c.1,2,.3,4,.5,6Zm-.7-12.2c0-2,0-4.1.2-6.1h2c-.1,2-.2,4-.2,6ZM64.8,116l-2-.3.9-6,2,.4ZM67,104.2l-1.9-.5a35.6,35.6,0,0,1,1.8-5.9l1.9.7A48.4,48.4,0,0,0,67,104.2Z" fill="url(#ak)"/><path d="M461.2,241.3h-5.7v-2h6v2Zm6.5-.1v-2l6.1-.3v2Zm12.2-.8-.2-2,5.9-.7.3,2Zm12-1.6-.3-2,5.9-1,.4,1.9Zm12-2.3-.5-2,5.9-1.4.5,1.9Zm11.8-3.2-.6-1.9,5.7-1.9.6,1.9Zm11.4-4-.7-1.9,5.5-2.4.9,1.9Zm11.1-5.1-.9-1.8,5.3-2.9,1,1.7C541.9,222.3,540.1,223.2,538.2,224.2Zm10.6-6.2-1.1-1.7,4.9-3.4,1.2,1.6Zm9.8-7.3-1.4-1.5c1.6-1.3,3-2.7,4.4-4h.1l1.4,1.5H563Zm8.6-8.7-1.6-1.3a42,42,0,0,0,3.3-4.9l1.7,1A35.8,35.8,0,0,1,567.2,202Zm6.1-10.7-1.9-.8a36.9,36.9,0,0,0,1.9-5.6l2,.5A58.4,58.4,0,0,1,573.3,191.3Zm3.2-11.9-2-.3c.3-2,.5-3.9.7-6l2,.2C577.1,175.3,576.8,177.4,576.5,179.4Zm-1.3-12.2c0-2-.2-4-.4-6l2-.2c.2,2.1.4,4.1.4,6.1Zm-1.3-11.9c-.4-1.9-.8-3.9-1.3-5.8l2-.5c.5,2,.9,4,1.3,6Zm-3-11.6c-.6-1.8-1.3-3.7-2-5.6l1.9-.7c.7,1.9,1.4,3.8,2,5.7Zm-4.3-11.1c-.8-1.8-1.7-3.6-2.6-5.4l1.8-1c.9,1.9,1.8,3.7,2.6,5.5Zm-5.5-10.7-3.1-5.1,1.7-1.1c1.1,1.7,2.1,3.4,3.1,5.2Zm-6.5-10.1L551,107l1.6-1.3c1.2,1.6,2.5,3.3,3.6,4.9Zm-7.4-9.5-4-4.5,1.5-1.4,4.1,4.6ZM67.8,100.4l-1.6-1.2,2.4-3.4L70.3,97Zm471.3-6.9-4.3-4.2,1.3-1.5,4.4,4.2ZM73.9,92.2l-1.6-1.3,3.8-4.8,1.6,1.3Zm456.4-6.9-4.7-3.8,1.3-1.6,4.7,3.9ZM155,83.8a11.6,11.6,0,0,1-6-1.3l1-1.7a11.4,11.4,0,0,0,5.3,1v2Zm6.6-.8-.5-2a49.7,49.7,0,0,0,5.7-1.6l.7,1.9A61.2,61.2,0,0,1,161.6,83Zm-80.1-.3L80,81.4l3.9-4.6,1.5,1.3ZM173.2,79l-.8-1.8a52.8,52.8,0,0,0,5.3-2.7l1,1.8C176.9,77.3,175,78.2,173.2,79Zm347.7-1.2-5-3.5,1.2-1.6,4.9,3.5ZM147.8,76.6h-2.1a15.9,15.9,0,0,1,1.5-6.2l1.9.7A14.4,14.4,0,0,0,147.8,76.6Zm-58.4-3-1.5-1.3,4.2-4.5,1.4,1.4Zm94.6-.5-1.1-1.7a58.5,58.5,0,0,0,4.8-3.4l1.3,1.6Zm326.9-2-5.1-3.2,1-1.7,5.2,3.1ZM151.8,65.9l-1.7-1a51.6,51.6,0,0,1,3.5-5.1l1.6,1.3A52.2,52.2,0,0,0,151.8,65.9Zm41.9-.3-1.4-1.5a31.9,31.9,0,0,0,4-4.3l1.6,1.3A57.6,57.6,0,0,1,193.7,65.6ZM500.5,65c-1.7-.9-3.5-1.9-5.3-2.7l.8-1.8c1.9.8,3.7,1.8,5.5,2.7ZM97.7,64.8l-1.4-1.4,4.3-4.3,1.4,1.5Zm392-5.1-5.5-2.4.8-1.9,5.5,2.5Zm-71.8-2.3h-6v-2H418Zm6.1-.1v-2l6-.4V57C428.2,57.1,426.1,57.3,424,57.3Zm-18.2-.4-6.1-.6.3-2,5.9.6Zm-246.6-.3-1.5-1.4,4.5-4.2,1.3,1.5C162,53.9,160.5,55.2,159.2,56.6Zm-52.8-.2L105,54.9l4.6-4,1.3,1.5Zm329.8-.1-.3-2,5.9-1,.4,1.9ZM201.4,56l-1.7-1a20.9,20.9,0,0,0,2.1-5.3l2,.4A26.2,26.2,0,0,1,201.4,56Zm192.3-.5-6-1,.4-2,5.9,1Zm84.9-.4-5.7-2,.7-1.9,5.7,2Zm-30.4-1.3-.6-2a47.6,47.6,0,0,0,5.7-1.9l.7,1.9Zm-66.5-.6-5.9-1.4.5-1.9,5.9,1.4Zm85.5-2-5.8-1.6.5-1.9-2.3,1.5-1-1.8a29.3,29.3,0,0,0,4.8-3.4l1.3,1.5a13.9,13.9,0,0,1-2.7,2.1l5.8,1.7Zm-97.3-1c-1.9-.5-3.9-1.1-5.8-1.8l.7-1.9,5.7,1.8ZM168.2,48.8,167,47.2l5-3.5,1.1,1.7Zm-52.7-.3L114.2,47l4.8-3.8,1.3,1.6Zm340.1-.4-5.9-1.3.4-2,5.9,1.3Zm-97.2-1.7-5.7-2.1.7-1.9c1.9.7,3.8,1.5,5.7,2.1Zm85.4-.8-5.9-1,.3-2,5.9,1ZM202.1,44.1a15.6,15.6,0,0,0-2-5.3l1.7-1a19.5,19.5,0,0,1,2.3,5.9Zm229.7-.4-5.9-1.2.4-2c1.9.4,3.9.9,5.9,1.2ZM178.3,42.4l-1-1.8c1.7-1,3.6-1.9,5.4-2.8l.9,1.8C181.8,40.5,180,41.4,178.3,42.4Zm168.8-.5-2.9-1.3-2.6-1.2.8-1.8a20.6,20.6,0,0,1,2.6,1.2l2.9,1.3Zm-222-.7L124,39.6c1.6-1.2,3.4-2.3,5-3.4l1.1,1.7ZM420,40.8c-2.1-.7-4-1.4-5.8-2.2l.9-1.9a57.2,57.2,0,0,0,5.5,2.2Zm48.7-.2-1.8-1a10.2,10.2,0,0,0,1.3-5.1v-.2h2v.2A13.4,13.4,0,0,1,468.7,40.6ZM189,37.1l-.8-1.9,5.7-2.3.7,1.9Zm147,0-5.6-2.2.7-1.9,5.7,2.2Zm72.8-1.5a28,28,0,0,1-4.9-3.9l1.5-1.4a20.9,20.9,0,0,0,4.5,3.6Zm-273.5-.8-1-1.8,5.4-2.8.8,1.8C138.8,32.8,137,33.8,135.3,34.8Zm61-.3a35.9,35.9,0,0,0-4.7-3.5l1-1.7a34.1,34.1,0,0,1,5,3.7ZM324.7,33q-2.8-1.1-5.7-1.8l.5-2,5.8,1.8Zm-124.4-.2-.7-1.9,5.8-1.9.6,2A54,54,0,0,0,200.3,32.8Zm112.9-3.2-5.9-1.4.4-2,6,1.4ZM146,29.5l-.8-1.8c2-.8,3.9-1.6,5.8-2.2l.6,2A47.4,47.4,0,0,0,146,29.5Zm65.8-.2-.5-1.9,5.9-1.4.4,1.9Zm255.1-.4a30.4,30.4,0,0,0-3.1-4.9l1.5-1.3a24.7,24.7,0,0,1,3.4,5.3Zm-280.6-.6a52,52,0,0,0-5.5-2.1l.5-1.9a49.6,49.6,0,0,1,5.8,2.1ZM301.4,27l-5.9-1.1.3-2,6,1.1Zm-77.9-.3-.3-2,6-1,.3,2Zm176.7-.2a15.3,15.3,0,0,1-1.3-5.9v-.4h2v.4a11.1,11.1,0,0,0,1.2,5Zm-242.9-.6-.4-2c2-.4,4.1-.8,6.1-1l.2,2A42.8,42.8,0,0,0,157.3,25.9ZM289.5,25l-6-.7.2-2,6.1.7ZM175,25a38.1,38.1,0,0,0-5.9-.4v-2a42.1,42.1,0,0,1,6.2.4Zm60.4-.2-.2-2,6-.6.2,2Zm42.1-1-6-.4v-2l6.1.4Zm-30.1-.1v-2l6.1-.4v2.1Q250.4,23.4,247.4,23.7Zm18.1-.5h-6v-2h6.1Zm194.2-3.5c-1.4-1.2-2.9-2.5-4.6-3.7l1.2-1.6c1.7,1.2,3.3,2.6,4.8,3.9Zm-57.3-4.8-1.7-1a16.6,16.6,0,0,1,4-4.9l1.3,1.5A16.6,16.6,0,0,0,402.4,14.9Zm47.8-2.3c-1.7-1.1-3.5-2-5.2-2.9l.9-1.8a55.4,55.4,0,0,1,5.3,3ZM410.8,7.4,410,5.5a45.3,45.3,0,0,1,5.9-2.1l.4,2A25.8,25.8,0,0,0,410.8,7.4Zm28.7-.1-5.7-1.7.5-1.9a30.9,30.9,0,0,1,5.9,1.8ZM428,4.7a23,23,0,0,0-3.7-.2h-2.2v-2h2.3a25.5,25.5,0,0,1,3.9.2Z" fill="url(#al)"/><rect x="32.4" y="75.6" width="57.9" height="57.91" rx="19.7" transform="translate(47.1 -15.8) rotate(23.6)" fill="#0091ff"/><rect x="261.4" y="4" width="57.7" height="56.05" rx="19.2" transform="translate(36.3 176.1) rotate(-35.9)" fill="#0091ff"/><circle cx="273.5" cy="26.4" r="3.9" fill="url(#am)"/><rect x="279.6" y="29.3" width="7" height="20.68" rx="2.4" transform="translate(31.4 175.1) rotate(-36.3)" fill="url(#an)"/><path d="M287.4,22.2l.5.7a3.4,3.4,0,0,0-4.7-.8,3.4,3.4,0,0,0-.5,4.7l11.4,14.9a3.4,3.4,0,0,0,4.7.8,3.5,3.5,0,0,0,.5-4.8L291.1,27s2.1-7.9,7.2-2.6h0c0,.1.1.1.1.2l6.7,8.7a3.4,3.4,0,0,0,4.7.8,3.4,3.4,0,0,0,.5-4.7l-6.7-8.8h-.1S294.7,7.7,287.4,22.2Z" fill="url(#ao)"/><polygon points="508.8 76.8 507.6 98.2 569.3 74.8 508.8 76.8" fill="#27af9b"/><polygon points="569.3 74.8 507.6 98.2 514.5 88.5 569.3 74.8" fill="#054c42" opacity="0.5"/><polygon points="501.2 60.2 508.8 76.8 569.3 74.8 501.2 60.2" fill="#00f4d9"/><polygon points="522.1 109.5 569.3 74.8 514.5 88.5 522.1 109.5" fill="#00f4d9"/><polygon points="68.8 126.4 49.5 118 60.3 93.3 74.9 99.7 77 107.7 68.8 126.4" fill="url(#ap)"/><polygon points="74.9 99.7 72.3 105.5 76.9 107.5 74.9 99.7" fill="url(#aq)"/><rect x="59.5" y="112.2" width="0.3" height="9.62" transform="translate(-71.4 124.6) rotate(-66.3)" fill="url(#ar)"/><rect x="61.5" y="109.8" width="0.3" height="12.61" transform="translate(-69.4 125.9) rotate(-66.3)" fill="url(#as)"/><rect x="62.2" y="108.3" width="0.3" height="12.61" transform="translate(-67.6 125.7) rotate(-66.3)" fill="url(#at)"/><rect x="62.9" y="106.7" width="0.3" height="12.61" transform="translate(-65.8 125.4) rotate(-66.3)" fill="url(#au)"/><rect x="63.5" y="105.2" width="0.3" height="12.61" transform="translate(-64 125.1) rotate(-66.3)" fill="url(#av)"/><rect x="64.2" y="103.7" width="0.3" height="12.61" transform="translate(-62.2 124.8) rotate(-66.3)" fill="url(#aw)"/><rect x="64.9" y="102.2" width="0.3" height="12.61" transform="translate(-60.4 124.5) rotate(-66.3)" fill="url(#ax)"/><rect x="65.5" y="100.7" width="0.3" height="12.61" transform="translate(-58.6 124.2) rotate(-66.3)" fill="url(#ay)"/><rect x="517.1" y="186" width="57.7" height="58.99" rx="19.7" transform="translate(484.9 -368.3) rotate(62.5)" fill="#0091ff"/><path d="M566,224.8l-15.2,7.9a5.5,5.5,0,0,1-7.4-2.3l-1.9-3.7-5.8-11.1a5.4,5.4,0,0,1,2.4-7.3l11.4-6,3.8-1.9a5.4,5.4,0,0,1,7.3,2.2l7.8,14.9A5.5,5.5,0,0,1,566,224.8Z" fill="url(#az)"/><path d="M555.9,217.9c-.4,3.5-11,7.4-14.4,8.8l-5.8-11.1a5.4,5.4,0,0,1,2.4-7.3l11.4-6C551.9,205.9,556.3,214.8,555.9,217.9Z" opacity="0.05"/><rect x="548.4" y="220" width="11.3" height="1.33" rx="0.5" transform="translate(-39.3 280.7) rotate(-27.5)" fill="url(#ba)"/><rect x="546.4" y="215.9" width="11.3" height="1.33" rx="0.5" transform="translate(-37.6 279.3) rotate(-27.5)" fill="url(#bb)"/><rect x="544.3" y="211.8" width="11.3" height="1.33" rx="0.5" transform="translate(-36 277.9) rotate(-27.5)" fill="url(#bc)"/><path d="M545.4,198.3l7.7,14.8a5.5,5.5,0,0,1-2.4,7.4l-15.1,7.8a5.5,5.5,0,0,1-7.4-2.2l-7.7-14.8a5.5,5.5,0,0,1,2.4-7.4L538,196A5.5,5.5,0,0,1,545.4,198.3Z" fill="url(#bd)"/><rect x="535.3" y="218.7" width="11.3" height="1.33" rx="0.5" transform="translate(-40.2 274.5) rotate(-27.5)" fill="url(#be)"/><rect x="533.2" y="214.6" width="11.3" height="1.33" rx="0.5" transform="translate(-38.5 273.1) rotate(-27.5)" fill="url(#bf)"/><rect x="531.2" y="210.5" width="11.3" height="1.33" rx="0.5" transform="translate(-36.9 271.7) rotate(-27.5)" fill="url(#bg)"/><path d="M545.4,198.3l1.6,3.1-24.9,12.9-1.6-3a5.5,5.5,0,0,1,2.4-7.4L538,196A5.5,5.5,0,0,1,545.4,198.3Z" fill="#00f4d9"/><rect x="522.1" y="206.5" width="11.3" height="1.33" rx="0.5" transform="translate(-36 267.1) rotate(-27.5)" fill="url(#bh)"/><polygon points="65.1 115 45.8 106.5 56.6 81.9 71.2 88.3 73.3 96.3 65.1 115" fill="url(#bi)"/><polygon points="71.2 88.3 68.6 94.1 73.2 96.1 71.2 88.3" fill="url(#bj)"/><rect x="55.8" y="100.8" width="0.3" height="9.62" transform="translate(-63.2 114.4) rotate(-66.3)" fill="url(#bk)"/><rect x="57.9" y="98.4" width="0.3" height="12.61" transform="translate(-61.1 115.7) rotate(-66.3)" fill="url(#bl)"/><rect x="58.5" y="96.8" width="0.3" height="12.61" transform="translate(-59.4 115.4) rotate(-66.3)" fill="url(#bm)"/><rect x="59.2" y="95.3" width="0.3" height="12.61" transform="translate(-57.6 115.1) rotate(-66.3)" fill="url(#bn)"/><rect x="59.9" y="93.8" width="0.3" height="12.61" transform="translate(-55.8 114.8) rotate(-66.3)" fill="url(#bo)"/><rect x="60.5" y="92.3" width="0.3" height="12.61" transform="translate(-54 114.6) rotate(-66.3)" fill="url(#bp)"/><rect x="61.2" y="90.8" width="0.3" height="12.61" transform="translate(-52.2 114.3) rotate(-66.3)" fill="url(#bq)"/><rect x="61.9" y="89.2" width="0.3" height="12.61" transform="translate(-50.4 114) rotate(-66.3)" fill="url(#br)"/></svg>