<svg width="500" height="600" xmlns="http://www.w3.org/2000/svg" xmlns:xlink="http://www.w3.org/1999/xlink" viewBox="0 0 500 600"><defs><clipPath id="a"><polygon points="0 -1.3 500 -1.3 499 558.4 0 558.4 0 -1.3" fill="none"/></clipPath></defs><g clip-path="url(#a)"><rect x="-31.9" y="-43" width="559.7" height="643.09" fill="#bfe1fb"/><path d="M103.8,78.1H-38.6a5.4,5.4,0,0,0-5.3,5.4V207a5.5,5.5,0,0,0,5.3,5.4H41.6c5.5,10.4,8.2,20.3,4.7,29.1,5.9-8.3,13.8-18.3,21.9-29.1h35.6a5.4,5.4,0,0,0,5.4-5.4V83.5a5.4,5.4,0,0,0-5.4-5.4Z" fill="#0091ff" opacity="0.5" style="isolation:isolate"/><path d="M442.9,248.9A59.7,59.7,0,0,0,404,193a13.6,13.6,0,0,0,.3-2.9A17.2,17.2,0,0,0,387,172.8h-1a72,72,0,0,0-9.3-27.3,17.6,17.6,0,0,0,2-8.1,17.2,17.2,0,0,0-17.3-17.2h0a15.8,15.8,0,0,0-7.6,1.8A69.4,69.4,0,0,0,316,111a70.5,70.5,0,0,0-35,9.3,70.5,70.5,0,0,0-138,7,57.4,57.4,0,0,0-91.3,34.6,27.7,27.7,0,0,0-21.8,22.2,54.4,54.4,0,0,0,4.9,107.8,52.8,52.8,0,0,0,76.5,67.5,18.8,18.8,0,0,0,6.2,1.1,17.7,17.7,0,0,0,12.5-5.2,107.2,107.2,0,0,0,121.8,2.6,18.2,18.2,0,0,0,8.5,2.2,16.8,16.8,0,0,0,6.3-1.2,69,69,0,0,0,96.9-11.2,70.6,70.6,0,0,0,11-19.7l2.6.2a17.4,17.4,0,0,0,17.3-17.3,16.6,16.6,0,0,0-.3-3.2A59.8,59.8,0,0,0,442.9,248.9ZM92.7,230.1a9.9,9.9,0,0,0-.2-1.7l.8.2Z" fill="#00f4d9" opacity="0.5" style="isolation:isolate"/><path d="M257.2.5a44.9,44.9,0,0,0-9,49.9l-1.6,1.4a12.9,12.9,0,0,0,0,18.2l.5.6a50.8,50.8,0,0,0-9.3,19.1,12.9,12.9,0,0,0-5.6,21.2l.3.3a13,13,0,0,0,4.9,3,52.7,52.7,0,0,0,14.1,25.6,50.4,50.4,0,0,0,23.3,13.5,52.5,52.5,0,0,0,76.3,69,42.4,42.4,0,0,0,12.1,24.5,42.9,42.9,0,0,0,54.2,5.3,20.7,20.7,0,0,0,23.1-.2,40.5,40.5,0,0,0,54.1-59.3,37.5,37.5,0,0,0,15.2-9.4,39.1,39.1,0,0,0,0-55.5,38.4,38.4,0,0,0-20-10.7,9.8,9.8,0,0,0-2.7-3.9,12.4,12.4,0,0,0-9.2-3.8A79.7,79.7,0,0,0,415,43.8a13.2,13.2,0,0,0-3.3-5.7,13.6,13.6,0,0,0-3.9-2.7,51.3,51.3,0,0,0-56.9-45,52.5,52.5,0,0,0-16,4.6l-1.3-1.5a12.8,12.8,0,0,0-18-.2l-.3.2-1.5,1.8A44.6,44.6,0,0,0,257.2.5ZM431.6,194.7l-.8,1-.3-.6Z" fill="#29abe2" opacity="0.5" style="isolation:isolate"/><g opacity="0.5"><circle cx="52.4" cy="350.4" r="2.5" fill="#fff"/><circle cx="63.2" cy="353.2" r="2.5" fill="#fff"/><circle cx="67.6" cy="360" r="2.5" fill="#fff"/><circle cx="81" cy="361.9" r="2.5" fill="#fff"/><circle cx="42.8" cy="337.6" r="2.5" fill="#fff"/><circle cx="37.8" cy="322.4" r="2.5" fill="#fff"/><circle cx="52.3" cy="340.9" r="3.5" fill="#fff"/><circle cx="57.2" cy="344.9" r="1.3" fill="#fff"/><circle cx="58" cy="353.3" r="1.3" fill="#fff"/><circle cx="74.2" cy="360.1" r="1.3" fill="#fff"/><circle cx="68.7" cy="351.9" r="1.3" fill="#fff"/><circle cx="89.4" cy="362.7" r="1.3" fill="#fff"/><circle cx="48.6" cy="335.8" r="1.3" fill="#fff"/><circle cx="44.5" cy="344.3" r="1.3" fill="#fff"/><circle cx="39.6" cy="332.2" r="1.3" fill="#fff"/><circle cx="33.8" cy="317.4" r="1.3" fill="#fff"/><circle cx="44.5" cy="328.1" r="3.5" fill="#fff"/><circle cx="96" cy="362.1" r="0.7" fill="#fff"/><circle cx="76" cy="362.7" r="0.7" fill="#fff"/><circle cx="66.7" cy="355.8" r="0.7" fill="#fff"/><circle cx="59.9" cy="355.8" r="0.7" fill="#fff"/><circle cx="64" cy="358.1" r="0.7" fill="#fff"/><circle cx="86" cy="363.9" r="0.7" fill="#fff"/><circle cx="97.9" cy="361.9" r="0.5" fill="#fff"/><circle cx="93.2" cy="361.2" r="0.7" fill="#fff"/><circle cx="91.9" cy="363" r="0.7" fill="#fff"/><circle cx="94.1" cy="363.5" r="0.7" fill="#fff"/><circle cx="53.9" cy="346.4" r="0.7" fill="#fff"/><circle cx="47.2" cy="343.7" r="0.7" fill="#fff"/><circle cx="46.8" cy="346.9" r="0.7" fill="#fff"/><circle cx="56.6" cy="348.7" r="0.7" fill="#fff"/><circle cx="55.3" cy="353.7" r="0.7" fill="#fff"/><circle cx="50.3" cy="346.4" r="1.1" fill="#fff"/><circle cx="46.8" cy="340.1" r="0.7" fill="#fff"/><circle cx="33.8" cy="312.4" r="0.7" fill="#fff"/><circle cx="39.6" cy="328" r="0.7" fill="#fff"/><circle cx="42.7" cy="341.5" r="0.7" fill="#fff"/><circle cx="33.3" cy="320.9" r="0.7" fill="#fff"/><circle cx="43.2" cy="333" r="0.7" fill="#fff"/><circle cx="36.9" cy="326.2" r="0.7" fill="#fff"/><circle cx="37.3" cy="329.4" r="0.7" fill="#fff"/><circle cx="48.1" cy="349.1" r="0.7" fill="#fff"/><circle cx="38.2" cy="335.7" r="0.7" fill="#fff"/><circle cx="33.8" cy="325.8" r="0.7" fill="#fff"/><circle cx="71.4" cy="357.3" r="0.7" fill="#fff"/></g><path d="M347.9,203l.6,1a4.5,4.5,0,0,1-2.5,5.7,4.4,4.4,0,0,1-5.6-2.5h0L289,235a4.4,4.4,0,0,1,2.9,2.6,4.3,4.3,0,1,1-8,3.2,4.1,4.1,0,0,1-.1-2.9l-31.9,17.3a4.6,4.6,0,0,1-2.8,3.8,4.5,4.5,0,0,1-3.6-.3l-.9.5,6.4,16.4h.1a4.3,4.3,0,0,1,8.3-2.1c0,.1,0,.1.1.2l56-13a4.7,4.7,0,0,1,2.7-3.1,4.2,4.2,0,0,1,5,1.4L371,247.9l-18.5-47.4Zm-74.6,58.2a4.3,4.3,0,0,1-5.6-2.3c0-.1,0-.2-.1-.2a4.3,4.3,0,0,1,2.4-5.5h.1a4.2,4.2,0,0,1,5.5,2.2.4.4,0,0,0,.1.3,4.3,4.3,0,0,1-2.4,5.6Zm24,2.2a4.3,4.3,0,0,1-3.7-7.8l.6-.2a4.2,4.2,0,0,1,5.4,2.8A4.3,4.3,0,0,1,297.3,263.4Zm16.2-17.9a4.4,4.4,0,0,1-5.6-2.5,4.4,4.4,0,0,1,2.5-5.6h0a4.1,4.1,0,0,1,5.4,2.2.4.4,0,0,1,.1.3,4.3,4.3,0,0,1-2.3,5.6Zm24.1,2.2a4.3,4.3,0,0,1-5.6-2.4h0a4.2,4.2,0,0,1,2.5-5.5,4.4,4.4,0,0,1,5.6,2.5A4.3,4.3,0,0,1,337.6,247.7Zm-7.8-20.1a4.4,4.4,0,0,1-5.6-2.5,4.3,4.3,0,0,1,2.4-5.6h.1a4.3,4.3,0,0,1,5.6,2.5A4.4,4.4,0,0,1,329.8,227.6Zm31.8,22.3a4,4,0,0,1-5.4-2.3h-.1a4.2,4.2,0,0,1,2.2-5.5h.2a4.3,4.3,0,0,1,5.6,2.4h0a4.2,4.2,0,0,1-2.2,5.5Zm-7.8-20.1a4.3,4.3,0,0,1-5.6-2.4h0a4.4,4.4,0,0,1,2.5-5.6,4.3,4.3,0,0,1,5.6,2.4h0a4.4,4.4,0,0,1-2.5,5.6Z" fill="#fff" opacity="0.41" style="isolation:isolate"/><path d="M265,241.1c-4-22.8-36.6-47.4-70.5-44.9-39.3,2.8-68.2,42.6-64.2,69.2,2.5,16,12.6,31.8,20.7,52.1,9.8,24.5-.2,36.1-2.8,48.4a108.5,108.5,0,0,0,86,1.8c-1.8-8.3-3.3-15.9,1.7-20.2,8.8-7.5,28.6,3.2,32.7-4,2.9-5-3.9-14.5,1-19.3,1.1-1.1,2.8-2,3.1-4.1s-1.7-3.3-1.3-5.8,3.3-3.1,3.6-5.8-1.9-3-1.8-4.9c.1-4,8.7-4,10.7-8.2,2.9-5.9-10.1-13.7-16.2-29.1C263.4,255.2,266.5,249.7,265,241.1Z" fill="#0091ff"/><path d="M266.7,262.2H250.4v11.7H237.3v11.6h-13v10.6h-.2v1H211.2v11.7h-13v11.7h-13v11.6H172.1v11.6H159v15h-8.7a45.8,45.8,0,0,0-1.9,6.6,107.8,107.8,0,0,0,85.9,1.7c-1.8-8.2-3.3-15.9,1.7-20.1,8.9-7.6,28.6,3.1,32.8-4.1,2.9-4.9-3.9-14.4,1-19.2,1-1.1,2.8-2,3.1-4.1s-1.7-3.4-1.3-5.8,3.3-3.1,3.5-5.8-1.8-3.1-1.8-5.1c.2-3.8,8.8-3.8,10.8-8,2.9-5.9-10.2-13.7-16.2-29.2Zm-42.6,65.7h-.2v-8.4h.2Z" fill="#027dc9"/><path d="M199.4,134.7l-78.1,43.5,12.6,3.3v17.2a3.3,3.3,0,0,0-2,3,3,3,0,0,0,1.1,2.4,4,4,0,0,0-1.7,3.3v42.8h7.8V207.4a4.3,4.3,0,0,0-1.7-3.3,3.8,3.8,0,0,0,1.1-2.4,3.6,3.6,0,0,0-2.2-3.1V182.2l15.6,4.1V212h0c0,8.1,20,14.6,44.7,14.6s44.6-6.5,44.6-14.6h0V186.3l30.6-8.1Z" fill="#fe4a5a" opacity="0.8" style="isolation:isolate"/><path d="M300.1,485.9c57,0,103.2-31.5,103.2-70.5,0-30.4-28.1-56.3-67.6-66.3-1.8-4.4-12.5-31.3-19.6-33.4,1.7,13.1-.9,23-3.9,29.6-4-.3-8-.4-12.1-.4-57.1,0-103.3,31.6-103.3,70.5S243,485.9,300.1,485.9Z" fill="#fe4a5a" opacity="0.5" style="isolation:isolate"/><g opacity="0.5"><ellipse cx="13.3" cy="275.9" rx="13.8" ry="39.7" fill="none" stroke="#fff" stroke-miterlimit="8.44" stroke-width="2.34"/><ellipse cx="13.3" cy="275.8" rx="39.7" ry="13.8" transform="translate(-191.1 90.2) rotate(-45)" fill="none" stroke="#fff" stroke-miterlimit="8.44" stroke-width="2.34"/><ellipse cx="13.3" cy="275.8" rx="13.8" ry="39.7" transform="translate(-191.1 90.2) rotate(-45)" fill="none" stroke="#fff" stroke-miterlimit="8.44" stroke-width="2.34"/><circle cx="37.1" cy="266.5" r="7" fill="#fff"/><circle cx="-6.4" cy="247" r="7" fill="#fff"/><circle cx="2.1" cy="301.4" r="7" fill="#fff"/></g><path d="M421.3,147.2,399.1,109,380.8,77.1V49.3h3.1a5.4,5.4,0,0,0,5.4-5.4V41.2a5.5,5.5,0,0,0-5.4-5.3H345.3a5.4,5.4,0,0,0-5.4,5.3v2.7a5.4,5.4,0,0,0,5.4,5.4h3.1V77.1L330.1,109l-22.2,38.2a14.4,14.4,0,0,0,12.5,21.6h88.4a14.4,14.4,0,0,0,14.4-14.3A15.3,15.3,0,0,0,421.3,147.2Z" fill="#00f4d9" opacity="0.5" style="isolation:isolate"/><circle cx="350.6" cy="101.6" r="5.6" fill="#fff" opacity="0.5" style="isolation:isolate"/><circle cx="356.2" cy="112.3" r="2.7" fill="#fff" opacity="0.5" style="isolation:isolate"/><circle cx="386.8" cy="104.5" r="2.7" fill="#fff" opacity="0.5" style="isolation:isolate"/><circle cx="370.2" cy="95.9" r="10.9" fill="#fff" opacity="0.5" style="isolation:isolate"/><line x1="277" y1="44.6" x2="234.8" y2="172" fill="none" stroke="#666" stroke-miterlimit="8.44" stroke-width="1.56"/><line x1="255.9" y1="35.6" x2="213.6" y2="163" fill="none" stroke="#666" stroke-miterlimit="8.44" stroke-width="1.56"/><line x1="252.7" y1="45.5" x2="273.4" y2="54.9" fill="none" stroke="#666" stroke-miterlimit="8.44" stroke-width="1.56"/><line x1="252.7" y1="45.5" x2="273.4" y2="54.9" fill="none" stroke="#666" stroke-miterlimit="8.44" stroke-width="1.56"/><line x1="246.9" y1="64.4" x2="267.5" y2="73.8" fill="none" stroke="#666" stroke-miterlimit="8.44" stroke-width="1.56"/><line x1="239.7" y1="85" x2="260.3" y2="94.5" fill="none" stroke="#666" stroke-miterlimit="8.44" stroke-width="1.56"/><line x1="232.6" y1="105.7" x2="253.2" y2="115.2" fill="none" stroke="#666" stroke-miterlimit="8.44" stroke-width="1.56"/><line x1="225.4" y1="126.4" x2="246" y2="135.8" fill="none" stroke="#666" stroke-miterlimit="8.44" stroke-width="1.56"/><line x1="218.1" y1="148.3" x2="238.8" y2="157.8" fill="none" stroke="#666" stroke-miterlimit="8.44" stroke-width="1.56"/><g opacity="0.5"><path d="M99.7,112.5a44.1,44.1,0,0,1-8-3.5l-6.3,6.2a64.9,64.9,0,0,0,14,6.2Z" fill="#fe4a5a"/><path d="M69.9,45.5a50.4,50.4,0,0,1,4.8-8.4l-5.5-6.9a62.9,62.9,0,0,0-7.9,14.1Z" fill="#fe4a5a"/><path d="M111.4,7.3a56.1,56.1,0,0,0-16.1,3.6l4.8,7.3a47.8,47.8,0,0,1,9.8-2.2Z" fill="#fe4a5a"/><path d="M70.2,85.8a44.8,44.8,0,0,1-3-8.7l-8.8-.6a64.8,64.8,0,0,0,5.1,14.8Z" fill="#fe4a5a"/><path d="M154.8,95.6a47,47,0,0,1-6,6.6l4,8.1a60.3,60.3,0,0,0,10.5-11.5Z" fill="#fe4a5a"/><path d="M65.8,65.4a55,55,0,0,1,.8-9.1l-7.7-4.1a59.6,59.6,0,0,0-1.5,13.3,23.5,23.5,0,0,0,.1,2.6l8.3-2.3Z" fill="#fe4a5a"/><path d="M76.2,95.6l-8.4,3.1a60.3,60.3,0,0,0,10.5,11.5l3.9-8A41.6,41.6,0,0,1,76.2,95.6Z" fill="#fe4a5a"/><path d="M82.1,28.7a45.7,45.7,0,0,1,7.9-6l-2.1-8.4A59.3,59.3,0,0,0,74.8,24Z" fill="#fe4a5a"/><path d="M165.1,65.4v.4l8.7,2.4c0-.9.1-1.8.1-2.7a60.5,60.5,0,0,0-1.5-13.4l-8.1,4.2A39.5,39.5,0,0,1,165.1,65.4Z" fill="#fe4a5a"/><path d="M119.5,7.3,121,16a41.7,41.7,0,0,1,9.9,2.2l4.9-7.3A56.6,56.6,0,0,0,119.5,7.3Z" fill="#fe4a5a"/><path d="M119.8,114.9l-4.3.2-4.4-.2-3.3,8.3a68.1,68.1,0,0,0,7.8.5,64.7,64.7,0,0,0,7.6-.5Z" fill="#fe4a5a"/><path d="M163.7,77.1a44.4,44.4,0,0,1-2.9,8.7l6.9,5.7a56.6,56.6,0,0,0,5.1-15Z" fill="#fe4a5a"/><path d="M156.3,37.1a49.8,49.8,0,0,1,4.7,8.4l8.8-1.3a53.4,53.4,0,0,0-8-14.1Z" fill="#fe4a5a"/><path d="M141,22.7a45.7,45.7,0,0,1,7.9,6l7.5-4.8a56.9,56.9,0,0,0-13.2-9.7Z" fill="#fe4a5a"/><path d="M139.3,109a51.1,51.1,0,0,1-8,3.5l.4,8.9a60.8,60.8,0,0,0,14.1-6.1Z" fill="#fe4a5a"/></g><path d="M538.5,388.8a84.6,84.6,0,0,0,.5-8.7,78.3,78.3,0,0,0-1.8-16.7l9.4-6.2a86.6,86.6,0,0,0-4.2-12.1l-11,1.4a81.2,81.2,0,0,0-15.3-21.4l4.6-10.4a87.6,87.6,0,0,0-9.7-7.6l-8.6,7.2a72.3,72.3,0,0,0-25.3-10.1l-1.7-11.4a94,94,0,0,0-11.9-1.1l-3.4,10.8a77.9,77.9,0,0,0-27.4,5.6l-7.6-8.7a101.7,101.7,0,0,0-10.3,5.5l3.2,11a76.9,76.9,0,0,0-20.3,19.9l-11-3.1a75.8,75.8,0,0,0-5.5,10.1l8.5,7.6a77.6,77.6,0,0,0-5.8,27.7L373,381.3a75.9,75.9,0,0,0,.9,11.7l11.4,1.8a74.4,74.4,0,0,0,9.9,25.8l-7.4,8.6a116.5,116.5,0,0,0,7.4,9.6l10.5-4.6a78.9,78.9,0,0,0,21.6,15.6L425.8,461a79.9,79.9,0,0,0,11.9,4.2l6.3-9.4a78.6,78.6,0,0,0,17.4,1.9c2.8,0,5.5-.2,8.3-.4l4.7,10.2a93.3,93.3,0,0,0,12.7-2.9V453.3a74.2,74.2,0,0,0,22-12.2l9.6,6a81.7,81.7,0,0,0,9.3-9.3l-5.9-9.4a79.8,79.8,0,0,0,12.2-21.9h11.2a79.1,79.1,0,0,0,2.9-12.8Zm-77.8,26.5a35.7,35.7,0,1,1,35.7-35.7,35.6,35.6,0,0,1-35.7,35.7Z" fill="#00f4d9" opacity="0.49" style="isolation:isolate"/></g></svg>